<?xml version="1.0" encoding="utf-8" standalone="no"?>
<!DOCTYPE svg PUBLIC "-//W3C//DTD SVG 1.1//EN"
  "http://www.w3.org/Graphics/SVG/1.1/DTD/svg11.dtd">
<svg xmlns:xlink="http://www.w3.org/1999/xlink" width="686.211066pt" height="492.449934pt" viewBox="0 0 686.211066 492.449934" xmlns="http://www.w3.org/2000/svg" version="1.1">
 <metadata>
  <rdf:RDF xmlns:dc="http://purl.org/dc/elements/1.1/" xmlns:cc="http://creativecommons.org/ns#" xmlns:rdf="http://www.w3.org/1999/02/22-rdf-syntax-ns#">
   <cc:Work>
    <dc:type rdf:resource="http://purl.org/dc/dcmitype/StillImage"/>
    <dc:date>2026-06-13T12:34:09.532435</dc:date>
    <dc:format>image/svg+xml</dc:format>
    <dc:creator>
     <cc:Agent>
      <dc:title>Matplotlib v3.11.0, https://matplotlib.org/</dc:title>
     </cc:Agent>
    </dc:creator>
   </cc:Work>
  </rdf:RDF>
 </metadata>
 <defs>
  <style type="text/css">*{stroke-linejoin: round; stroke-linecap: butt}</style>
 </defs>
 <g id="figure_1">
  <g id="patch_1">
   <path d="M 0 492.449934 
L 686.211066 492.449934 
L 686.211066 0 
L 0 0 
z
" style="fill: #ffffff"/>
  </g>
  <g id="axes_1">
   <g id="patch_2">
    <path d="M 54.511066 386.18 
L 612.511066 386.18 
L 612.511066 53.54 
L 54.511066 53.54 
z
" style="fill: #ffffff"/>
   </g>
   <g id="matplotlib.axis_1">
    <g id="xtick_1">
     <g id="line2d_1">
      <path d="M 92.771466 386.18 
L 92.771466 53.54 
" clip-path="url(#pc9aa5e2cdf)" style="fill: none; stroke: #cccccc; stroke-linecap: round"/>
     </g>
     <g id="text_1">
      <!-- agg_group_by_100k -->
      <g style="fill: #262626" transform="translate(13.110197 479.382881) rotate(-45) scale(0.11 -0.11)">
       <defs>
        <path id="DejaVuSans-44" d="M 2194 1759 
Q 1497 1759 1228 1600 
Q 959 1441 959 1056 
Q 959 750 1161 570 
Q 1363 391 1709 391 
Q 2188 391 2477 730 
Q 2766 1069 2766 1631 
L 2766 1759 
L 2194 1759 
z
M 3341 1997 
L 3341 0 
L 2766 0 
L 2766 531 
Q 2569 213 2275 61 
Q 1981 -91 1556 -91 
Q 1019 -91 701 211 
Q 384 513 384 1019 
Q 384 1609 779 1909 
Q 1175 2209 1959 2209 
L 2766 2209 
L 2766 2266 
Q 2766 2663 2505 2880 
Q 2244 3097 1772 3097 
Q 1472 3097 1187 3025 
Q 903 2953 641 2809 
L 641 3341 
Q 956 3463 1253 3523 
Q 1550 3584 1831 3584 
Q 2591 3584 2966 3190 
Q 3341 2797 3341 1997 
z
" transform="scale(0.015625)"/>
        <path id="DejaVuSans-4a" d="M 2906 1791 
Q 2906 2416 2648 2759 
Q 2391 3103 1925 3103 
Q 1463 3103 1205 2759 
Q 947 2416 947 1791 
Q 947 1169 1205 825 
Q 1463 481 1925 481 
Q 2391 481 2648 825 
Q 2906 1169 2906 1791 
z
M 3481 434 
Q 3481 -459 3084 -895 
Q 2688 -1331 1869 -1331 
Q 1566 -1331 1297 -1286 
Q 1028 -1241 775 -1147 
L 775 -588 
Q 1028 -725 1275 -790 
Q 1522 -856 1778 -856 
Q 2344 -856 2625 -561 
Q 2906 -266 2906 331 
L 2906 616 
Q 2728 306 2450 153 
Q 2172 0 1784 0 
Q 1141 0 747 490 
Q 353 981 353 1791 
Q 353 2603 747 3093 
Q 1141 3584 1784 3584 
Q 2172 3584 2450 3431 
Q 2728 3278 2906 2969 
L 2906 3500 
L 3481 3500 
L 3481 434 
z
" transform="scale(0.015625)"/>
        <path id="DejaVuSans-42" d="M 3263 -1063 
L 3263 -1509 
L -63 -1509 
L -63 -1063 
L 3263 -1063 
z
" transform="scale(0.015625)"/>
        <path id="DejaVuSans-55" d="M 2631 2963 
Q 2534 3019 2420 3045 
Q 2306 3072 2169 3072 
Q 1681 3072 1420 2755 
Q 1159 2438 1159 1844 
L 1159 0 
L 581 0 
L 581 3500 
L 1159 3500 
L 1159 2956 
Q 1341 3275 1631 3429 
Q 1922 3584 2338 3584 
Q 2397 3584 2469 3576 
Q 2541 3569 2628 3553 
L 2631 2963 
z
" transform="scale(0.015625)"/>
        <path id="DejaVuSans-52" d="M 1959 3097 
Q 1497 3097 1228 2736 
Q 959 2375 959 1747 
Q 959 1119 1226 758 
Q 1494 397 1959 397 
Q 2419 397 2687 759 
Q 2956 1122 2956 1747 
Q 2956 2369 2687 2733 
Q 2419 3097 1959 3097 
z
M 1959 3584 
Q 2709 3584 3137 3096 
Q 3566 2609 3566 1747 
Q 3566 888 3137 398 
Q 2709 -91 1959 -91 
Q 1206 -91 779 398 
Q 353 888 353 1747 
Q 353 2609 779 3096 
Q 1206 3584 1959 3584 
z
" transform="scale(0.015625)"/>
        <path id="DejaVuSans-58" d="M 544 1381 
L 544 3500 
L 1119 3500 
L 1119 1403 
Q 1119 906 1312 657 
Q 1506 409 1894 409 
Q 2359 409 2629 706 
Q 2900 1003 2900 1516 
L 2900 3500 
L 3475 3500 
L 3475 0 
L 2900 0 
L 2900 538 
Q 2691 219 2414 64 
Q 2138 -91 1772 -91 
Q 1169 -91 856 284 
Q 544 659 544 1381 
z
M 1991 3584 
L 1991 3584 
z
" transform="scale(0.015625)"/>
        <path id="DejaVuSans-53" d="M 1159 525 
L 1159 -1331 
L 581 -1331 
L 581 3500 
L 1159 3500 
L 1159 2969 
Q 1341 3281 1617 3432 
Q 1894 3584 2278 3584 
Q 2916 3584 3314 3078 
Q 3713 2572 3713 1747 
Q 3713 922 3314 415 
Q 2916 -91 2278 -91 
Q 1894 -91 1617 61 
Q 1341 213 1159 525 
z
M 3116 1747 
Q 3116 2381 2855 2742 
Q 2594 3103 2138 3103 
Q 1681 3103 1420 2742 
Q 1159 2381 1159 1747 
Q 1159 1113 1420 752 
Q 1681 391 2138 391 
Q 2594 391 2855 752 
Q 3116 1113 3116 1747 
z
" transform="scale(0.015625)"/>
        <path id="DejaVuSans-45" d="M 3116 1747 
Q 3116 2381 2855 2742 
Q 2594 3103 2138 3103 
Q 1681 3103 1420 2742 
Q 1159 2381 1159 1747 
Q 1159 1113 1420 752 
Q 1681 391 2138 391 
Q 2594 391 2855 752 
Q 3116 1113 3116 1747 
z
M 1159 2969 
Q 1341 3281 1617 3432 
Q 1894 3584 2278 3584 
Q 2916 3584 3314 3078 
Q 3713 2572 3713 1747 
Q 3713 922 3314 415 
Q 2916 -91 2278 -91 
Q 1894 -91 1617 61 
Q 1341 213 1159 525 
L 1159 0 
L 581 0 
L 581 4863 
L 1159 4863 
L 1159 2969 
z
" transform="scale(0.015625)"/>
        <path id="DejaVuSans-5c" d="M 2059 -325 
Q 1816 -950 1584 -1140 
Q 1353 -1331 966 -1331 
L 506 -1331 
L 506 -850 
L 844 -850 
Q 1081 -850 1212 -737 
Q 1344 -625 1503 -206 
L 1606 56 
L 191 3500 
L 800 3500 
L 1894 763 
L 2988 3500 
L 3597 3500 
L 2059 -325 
z
" transform="scale(0.015625)"/>
        <path id="DejaVuSans-14" d="M 794 531 
L 1825 531 
L 1825 4091 
L 703 3866 
L 703 4441 
L 1819 4666 
L 2450 4666 
L 2450 531 
L 3481 531 
L 3481 0 
L 794 0 
L 794 531 
z
" transform="scale(0.015625)"/>
        <path id="DejaVuSans-13" d="M 2034 4250 
Q 1547 4250 1301 3770 
Q 1056 3291 1056 2328 
Q 1056 1369 1301 889 
Q 1547 409 2034 409 
Q 2525 409 2770 889 
Q 3016 1369 3016 2328 
Q 3016 3291 2770 3770 
Q 2525 4250 2034 4250 
z
M 2034 4750 
Q 2819 4750 3233 4129 
Q 3647 3509 3647 2328 
Q 3647 1150 3233 529 
Q 2819 -91 2034 -91 
Q 1250 -91 836 529 
Q 422 1150 422 2328 
Q 422 3509 836 4129 
Q 1250 4750 2034 4750 
z
" transform="scale(0.015625)"/>
        <path id="DejaVuSans-4e" d="M 581 4863 
L 1159 4863 
L 1159 1991 
L 2875 3500 
L 3609 3500 
L 1753 1863 
L 3688 0 
L 2938 0 
L 1159 1709 
L 1159 0 
L 581 0 
L 581 4863 
z
" transform="scale(0.015625)"/>
       </defs>
       <use xlink:href="#DejaVuSans-44"/>
       <use xlink:href="#DejaVuSans-4a" transform="translate(61.28125 0)"/>
       <use xlink:href="#DejaVuSans-4a" transform="translate(124.765625 0)"/>
       <use xlink:href="#DejaVuSans-42" transform="translate(188.25 0)"/>
       <use xlink:href="#DejaVuSans-4a" transform="translate(238.25 0)"/>
       <use xlink:href="#DejaVuSans-55" transform="translate(301.734375 0)"/>
       <use xlink:href="#DejaVuSans-52" transform="translate(340.640625 0)"/>
       <use xlink:href="#DejaVuSans-58" transform="translate(401.828125 0)"/>
       <use xlink:href="#DejaVuSans-53" transform="translate(465.203125 0)"/>
       <use xlink:href="#DejaVuSans-42" transform="translate(528.6875 0)"/>
       <use xlink:href="#DejaVuSans-45" transform="translate(578.6875 0)"/>
       <use xlink:href="#DejaVuSans-5c" transform="translate(642.171875 0)"/>
       <use xlink:href="#DejaVuSans-42" transform="translate(701.359375 0)"/>
       <use xlink:href="#DejaVuSans-14" transform="translate(751.359375 0)"/>
       <use xlink:href="#DejaVuSans-13" transform="translate(814.984375 0)"/>
       <use xlink:href="#DejaVuSans-13" transform="translate(878.609375 0)"/>
       <use xlink:href="#DejaVuSans-4e" transform="translate(942.234375 0)"/>
      </g>
     </g>
    </g>
    <g id="xtick_2">
     <g id="line2d_2">
      <path d="M 127.162838 386.18 
L 127.162838 53.54 
" clip-path="url(#pc9aa5e2cdf)" style="fill: none; stroke: #cccccc; stroke-linecap: round"/>
     </g>
     <g id="text_2">
      <!-- agg_group_by_1m -->
      <g style="fill: #262626" transform="translate(54.326917 472.557533) rotate(-45) scale(0.11 -0.11)">
       <defs>
        <path id="DejaVuSans-50" d="M 3328 2828 
Q 3544 3216 3844 3400 
Q 4144 3584 4550 3584 
Q 5097 3584 5394 3201 
Q 5691 2819 5691 2113 
L 5691 0 
L 5113 0 
L 5113 2094 
Q 5113 2597 4934 2840 
Q 4756 3084 4391 3084 
Q 3944 3084 3684 2787 
Q 3425 2491 3425 1978 
L 3425 0 
L 2847 0 
L 2847 2094 
Q 2847 2600 2669 2842 
Q 2491 3084 2119 3084 
Q 1678 3084 1418 2786 
Q 1159 2488 1159 1978 
L 1159 0 
L 581 0 
L 581 3500 
L 1159 3500 
L 1159 2956 
Q 1356 3278 1631 3431 
Q 1906 3584 2284 3584 
Q 2666 3584 2933 3390 
Q 3200 3197 3328 2828 
z
" transform="scale(0.015625)"/>
       </defs>
       <use xlink:href="#DejaVuSans-44"/>
       <use xlink:href="#DejaVuSans-4a" transform="translate(61.28125 0)"/>
       <use xlink:href="#DejaVuSans-4a" transform="translate(124.765625 0)"/>
       <use xlink:href="#DejaVuSans-42" transform="translate(188.25 0)"/>
       <use xlink:href="#DejaVuSans-4a" transform="translate(238.25 0)"/>
       <use xlink:href="#DejaVuSans-55" transform="translate(301.734375 0)"/>
       <use xlink:href="#DejaVuSans-52" transform="translate(340.640625 0)"/>
       <use xlink:href="#DejaVuSans-58" transform="translate(401.828125 0)"/>
       <use xlink:href="#DejaVuSans-53" transform="translate(465.203125 0)"/>
       <use xlink:href="#DejaVuSans-42" transform="translate(528.6875 0)"/>
       <use xlink:href="#DejaVuSans-45" transform="translate(578.6875 0)"/>
       <use xlink:href="#DejaVuSans-5c" transform="translate(642.171875 0)"/>
       <use xlink:href="#DejaVuSans-42" transform="translate(701.359375 0)"/>
       <use xlink:href="#DejaVuSans-14" transform="translate(751.359375 0)"/>
       <use xlink:href="#DejaVuSans-50" transform="translate(814.984375 0)"/>
      </g>
     </g>
    </g>
    <g id="xtick_3">
     <g id="line2d_3">
      <path d="M 161.554209 386.18 
L 161.554209 53.54 
" clip-path="url(#pc9aa5e2cdf)" style="fill: none; stroke: #cccccc; stroke-linecap: round"/>
     </g>
     <g id="text_3">
      <!-- case_when -->
      <g style="fill: #262626" transform="translate(116.90931 444.366512) rotate(-45) scale(0.11 -0.11)">
       <defs>
        <path id="DejaVuSans-46" d="M 3122 3366 
L 3122 2828 
Q 2878 2963 2633 3030 
Q 2388 3097 2138 3097 
Q 1578 3097 1268 2742 
Q 959 2388 959 1747 
Q 959 1106 1268 751 
Q 1578 397 2138 397 
Q 2388 397 2633 464 
Q 2878 531 3122 666 
L 3122 134 
Q 2881 22 2623 -34 
Q 2366 -91 2075 -91 
Q 1284 -91 818 406 
Q 353 903 353 1747 
Q 353 2603 823 3093 
Q 1294 3584 2113 3584 
Q 2378 3584 2631 3529 
Q 2884 3475 3122 3366 
z
" transform="scale(0.015625)"/>
        <path id="DejaVuSans-56" d="M 2834 3397 
L 2834 2853 
Q 2591 2978 2328 3040 
Q 2066 3103 1784 3103 
Q 1356 3103 1142 2972 
Q 928 2841 928 2578 
Q 928 2378 1081 2264 
Q 1234 2150 1697 2047 
L 1894 2003 
Q 2506 1872 2764 1633 
Q 3022 1394 3022 966 
Q 3022 478 2636 193 
Q 2250 -91 1575 -91 
Q 1294 -91 989 -36 
Q 684 19 347 128 
L 347 722 
Q 666 556 975 473 
Q 1284 391 1588 391 
Q 1994 391 2212 530 
Q 2431 669 2431 922 
Q 2431 1156 2273 1281 
Q 2116 1406 1581 1522 
L 1381 1569 
Q 847 1681 609 1914 
Q 372 2147 372 2553 
Q 372 3047 722 3315 
Q 1072 3584 1716 3584 
Q 2034 3584 2315 3537 
Q 2597 3491 2834 3397 
z
" transform="scale(0.015625)"/>
        <path id="DejaVuSans-48" d="M 3597 1894 
L 3597 1613 
L 953 1613 
Q 991 1019 1311 708 
Q 1631 397 2203 397 
Q 2534 397 2845 478 
Q 3156 559 3463 722 
L 3463 178 
Q 3153 47 2828 -22 
Q 2503 -91 2169 -91 
Q 1331 -91 842 396 
Q 353 884 353 1716 
Q 353 2575 817 3079 
Q 1281 3584 2069 3584 
Q 2775 3584 3186 3129 
Q 3597 2675 3597 1894 
z
M 3022 2063 
Q 3016 2534 2758 2815 
Q 2500 3097 2075 3097 
Q 1594 3097 1305 2825 
Q 1016 2553 972 2059 
L 3022 2063 
z
" transform="scale(0.015625)"/>
        <path id="DejaVuSans-5a" d="M 269 3500 
L 844 3500 
L 1563 769 
L 2278 3500 
L 2956 3500 
L 3675 769 
L 4391 3500 
L 4966 3500 
L 4050 0 
L 3372 0 
L 2619 2869 
L 1863 0 
L 1184 0 
L 269 3500 
z
" transform="scale(0.015625)"/>
        <path id="DejaVuSans-4b" d="M 3513 2113 
L 3513 0 
L 2938 0 
L 2938 2094 
Q 2938 2591 2744 2837 
Q 2550 3084 2163 3084 
Q 1697 3084 1428 2787 
Q 1159 2491 1159 1978 
L 1159 0 
L 581 0 
L 581 4863 
L 1159 4863 
L 1159 2956 
Q 1366 3272 1645 3428 
Q 1925 3584 2291 3584 
Q 2894 3584 3203 3211 
Q 3513 2838 3513 2113 
z
" transform="scale(0.015625)"/>
        <path id="DejaVuSans-51" d="M 3513 2113 
L 3513 0 
L 2938 0 
L 2938 2094 
Q 2938 2591 2744 2837 
Q 2550 3084 2163 3084 
Q 1697 3084 1428 2787 
Q 1159 2491 1159 1978 
L 1159 0 
L 581 0 
L 581 3500 
L 1159 3500 
L 1159 2956 
Q 1366 3272 1645 3428 
Q 1925 3584 2291 3584 
Q 2894 3584 3203 3211 
Q 3513 2838 3513 2113 
z
" transform="scale(0.015625)"/>
       </defs>
       <use xlink:href="#DejaVuSans-46"/>
       <use xlink:href="#DejaVuSans-44" transform="translate(54.984375 0)"/>
       <use xlink:href="#DejaVuSans-56" transform="translate(116.265625 0)"/>
       <use xlink:href="#DejaVuSans-48" transform="translate(168.359375 0)"/>
       <use xlink:href="#DejaVuSans-42" transform="translate(229.890625 0)"/>
       <use xlink:href="#DejaVuSans-5a" transform="translate(279.890625 0)"/>
       <use xlink:href="#DejaVuSans-4b" transform="translate(361.671875 0)"/>
       <use xlink:href="#DejaVuSans-48" transform="translate(425.046875 0)"/>
       <use xlink:href="#DejaVuSans-51" transform="translate(486.578125 0)"/>
      </g>
     </g>
    </g>
    <g id="xtick_4">
     <g id="line2d_4">
      <path d="M 195.94558 386.18 
L 195.94558 53.54 
" clip-path="url(#pc9aa5e2cdf)" style="fill: none; stroke: #cccccc; stroke-linecap: round"/>
     </g>
     <g id="text_4">
      <!-- date_funcs -->
      <g style="fill: #262626" transform="translate(151.722404 443.944789) rotate(-45) scale(0.11 -0.11)">
       <defs>
        <path id="DejaVuSans-47" d="M 2906 2969 
L 2906 4863 
L 3481 4863 
L 3481 0 
L 2906 0 
L 2906 525 
Q 2725 213 2448 61 
Q 2172 -91 1784 -91 
Q 1150 -91 751 415 
Q 353 922 353 1747 
Q 353 2572 751 3078 
Q 1150 3584 1784 3584 
Q 2172 3584 2448 3432 
Q 2725 3281 2906 2969 
z
M 947 1747 
Q 947 1113 1208 752 
Q 1469 391 1925 391 
Q 2381 391 2643 752 
Q 2906 1113 2906 1747 
Q 2906 2381 2643 2742 
Q 2381 3103 1925 3103 
Q 1469 3103 1208 2742 
Q 947 2381 947 1747 
z
" transform="scale(0.015625)"/>
        <path id="DejaVuSans-57" d="M 1172 4494 
L 1172 3500 
L 2356 3500 
L 2356 3053 
L 1172 3053 
L 1172 1153 
Q 1172 725 1289 603 
Q 1406 481 1766 481 
L 2356 481 
L 2356 0 
L 1766 0 
Q 1100 0 847 248 
Q 594 497 594 1153 
L 594 3053 
L 172 3053 
L 172 3500 
L 594 3500 
L 594 4494 
L 1172 4494 
z
" transform="scale(0.015625)"/>
        <path id="DejaVuSans-49" d="M 2375 4863 
L 2375 4384 
L 1825 4384 
Q 1516 4384 1395 4259 
Q 1275 4134 1275 3809 
L 1275 3500 
L 2222 3500 
L 2222 3053 
L 1275 3053 
L 1275 0 
L 697 0 
L 697 3053 
L 147 3053 
L 147 3500 
L 697 3500 
L 697 3744 
Q 697 4328 969 4595 
Q 1241 4863 1831 4863 
L 2375 4863 
z
" transform="scale(0.015625)"/>
       </defs>
       <use xlink:href="#DejaVuSans-47"/>
       <use xlink:href="#DejaVuSans-44" transform="translate(63.484375 0)"/>
       <use xlink:href="#DejaVuSans-57" transform="translate(124.765625 0)"/>
       <use xlink:href="#DejaVuSans-48" transform="translate(163.96875 0)"/>
       <use xlink:href="#DejaVuSans-42" transform="translate(225.5 0)"/>
       <use xlink:href="#DejaVuSans-49" transform="translate(275.5 0)"/>
       <use xlink:href="#DejaVuSans-58" transform="translate(310.703125 0)"/>
       <use xlink:href="#DejaVuSans-51" transform="translate(374.078125 0)"/>
       <use xlink:href="#DejaVuSans-46" transform="translate(437.453125 0)"/>
       <use xlink:href="#DejaVuSans-56" transform="translate(492.4375 0)"/>
      </g>
     </g>
    </g>
    <g id="xtick_5">
     <g id="line2d_5">
      <path d="M 230.336952 386.18 
L 230.336952 53.54 
" clip-path="url(#pc9aa5e2cdf)" style="fill: none; stroke: #cccccc; stroke-linecap: round"/>
     </g>
     <g id="text_5">
      <!-- distinct_count -->
      <g style="fill: #262626" transform="translate(174.018714 456.03985) rotate(-45) scale(0.11 -0.11)">
       <defs>
        <path id="DejaVuSans-4c" d="M 603 3500 
L 1178 3500 
L 1178 0 
L 603 0 
L 603 3500 
z
M 603 4863 
L 1178 4863 
L 1178 4134 
L 603 4134 
L 603 4863 
z
" transform="scale(0.015625)"/>
       </defs>
       <use xlink:href="#DejaVuSans-47"/>
       <use xlink:href="#DejaVuSans-4c" transform="translate(63.484375 0)"/>
       <use xlink:href="#DejaVuSans-56" transform="translate(91.265625 0)"/>
       <use xlink:href="#DejaVuSans-57" transform="translate(143.359375 0)"/>
       <use xlink:href="#DejaVuSans-4c" transform="translate(182.5625 0)"/>
       <use xlink:href="#DejaVuSans-51" transform="translate(210.34375 0)"/>
       <use xlink:href="#DejaVuSans-46" transform="translate(273.71875 0)"/>
       <use xlink:href="#DejaVuSans-57" transform="translate(328.703125 0)"/>
       <use xlink:href="#DejaVuSans-42" transform="translate(367.90625 0)"/>
       <use xlink:href="#DejaVuSans-46" transform="translate(417.90625 0)"/>
       <use xlink:href="#DejaVuSans-52" transform="translate(472.890625 0)"/>
       <use xlink:href="#DejaVuSans-58" transform="translate(534.078125 0)"/>
       <use xlink:href="#DejaVuSans-51" transform="translate(597.453125 0)"/>
       <use xlink:href="#DejaVuSans-57" transform="translate(660.828125 0)"/>
      </g>
     </g>
    </g>
    <g id="xtick_6">
     <g id="line2d_6">
      <path d="M 264.728323 386.18 
L 264.728323 53.54 
" clip-path="url(#pc9aa5e2cdf)" style="fill: none; stroke: #cccccc; stroke-linecap: round"/>
     </g>
     <g id="text_6">
      <!-- filter_100k -->
      <g style="fill: #262626" transform="translate(221.527247 442.922688) rotate(-45) scale(0.11 -0.11)">
       <defs>
        <path id="DejaVuSans-13af" d="M 3431 3500 
L 3431 0 
L 2853 0 
L 2853 3053 
L 1275 3053 
L 1275 0 
L 697 0 
L 697 3053 
L 147 3053 
L 147 3500 
L 697 3500 
L 697 3744 
Q 697 4316 967 4589 
Q 1238 4863 1797 4863 
L 2375 4863 
L 2375 4384 
L 1825 4384 
Q 1516 4384 1395 4259 
Q 1275 4134 1275 3809 
L 1275 3500 
L 3431 3500 
z
M 2853 4856 
L 3431 4856 
L 3431 4128 
L 2853 4128 
L 2853 4856 
z
" transform="scale(0.015625)"/>
        <path id="DejaVuSans-4f" d="M 603 4863 
L 1178 4863 
L 1178 0 
L 603 0 
L 603 4863 
z
" transform="scale(0.015625)"/>
       </defs>
       <use xlink:href="#DejaVuSans-13af"/>
       <use xlink:href="#DejaVuSans-4f" transform="translate(62.984375 0)"/>
       <use xlink:href="#DejaVuSans-57" transform="translate(90.765625 0)"/>
       <use xlink:href="#DejaVuSans-48" transform="translate(129.96875 0)"/>
       <use xlink:href="#DejaVuSans-55" transform="translate(191.5 0)"/>
       <use xlink:href="#DejaVuSans-42" transform="translate(232.609375 0)"/>
       <use xlink:href="#DejaVuSans-14" transform="translate(282.609375 0)"/>
       <use xlink:href="#DejaVuSans-13" transform="translate(346.234375 0)"/>
       <use xlink:href="#DejaVuSans-13" transform="translate(409.859375 0)"/>
       <use xlink:href="#DejaVuSans-4e" transform="translate(473.484375 0)"/>
      </g>
     </g>
    </g>
    <g id="xtick_7">
     <g id="line2d_7">
      <path d="M 299.119694 386.18 
L 299.119694 53.54 
" clip-path="url(#pc9aa5e2cdf)" style="fill: none; stroke: #cccccc; stroke-linecap: round"/>
     </g>
     <g id="text_7">
      <!-- join_hash_100k -->
      <g style="fill: #262626" transform="translate(237.434516 461.406791) rotate(-45) scale(0.11 -0.11)">
       <defs>
        <path id="DejaVuSans-4d" d="M 603 3500 
L 1178 3500 
L 1178 -63 
Q 1178 -731 923 -1031 
Q 669 -1331 103 -1331 
L -116 -1331 
L -116 -844 
L 38 -844 
Q 366 -844 484 -692 
Q 603 -541 603 -63 
L 603 3500 
z
M 603 4863 
L 1178 4863 
L 1178 4134 
L 603 4134 
L 603 4863 
z
" transform="scale(0.015625)"/>
       </defs>
       <use xlink:href="#DejaVuSans-4d"/>
       <use xlink:href="#DejaVuSans-52" transform="translate(27.78125 0)"/>
       <use xlink:href="#DejaVuSans-4c" transform="translate(88.96875 0)"/>
       <use xlink:href="#DejaVuSans-51" transform="translate(116.75 0)"/>
       <use xlink:href="#DejaVuSans-42" transform="translate(180.125 0)"/>
       <use xlink:href="#DejaVuSans-4b" transform="translate(230.125 0)"/>
       <use xlink:href="#DejaVuSans-44" transform="translate(293.5 0)"/>
       <use xlink:href="#DejaVuSans-56" transform="translate(354.78125 0)"/>
       <use xlink:href="#DejaVuSans-4b" transform="translate(406.875 0)"/>
       <use xlink:href="#DejaVuSans-42" transform="translate(470.25 0)"/>
       <use xlink:href="#DejaVuSans-14" transform="translate(520.25 0)"/>
       <use xlink:href="#DejaVuSans-13" transform="translate(583.875 0)"/>
       <use xlink:href="#DejaVuSans-13" transform="translate(647.5 0)"/>
       <use xlink:href="#DejaVuSans-4e" transform="translate(711.125 0)"/>
      </g>
     </g>
    </g>
    <g id="xtick_8">
     <g id="line2d_8">
      <path d="M 333.511066 386.18 
L 333.511066 53.54 
" clip-path="url(#pc9aa5e2cdf)" style="fill: none; stroke: #cccccc; stroke-linecap: round"/>
     </g>
     <g id="text_8">
      <!-- multi_agg -->
      <g style="fill: #262626" transform="translate(293.234098 439.99858) rotate(-45) scale(0.11 -0.11)">
       <use xlink:href="#DejaVuSans-50"/>
       <use xlink:href="#DejaVuSans-58" transform="translate(97.40625 0)"/>
       <use xlink:href="#DejaVuSans-4f" transform="translate(160.78125 0)"/>
       <use xlink:href="#DejaVuSans-57" transform="translate(188.5625 0)"/>
       <use xlink:href="#DejaVuSans-4c" transform="translate(227.765625 0)"/>
       <use xlink:href="#DejaVuSans-42" transform="translate(255.546875 0)"/>
       <use xlink:href="#DejaVuSans-44" transform="translate(305.546875 0)"/>
       <use xlink:href="#DejaVuSans-4a" transform="translate(366.828125 0)"/>
       <use xlink:href="#DejaVuSans-4a" transform="translate(430.3125 0)"/>
      </g>
     </g>
    </g>
    <g id="xtick_9">
     <g id="line2d_9">
      <path d="M 367.902437 386.18 
L 367.902437 53.54 
" clip-path="url(#pc9aa5e2cdf)" style="fill: none; stroke: #cccccc; stroke-linecap: round"/>
     </g>
     <g id="text_9">
      <!-- order_by_100k -->
      <g style="fill: #262626" transform="translate(308.621201 459.002849) rotate(-45) scale(0.11 -0.11)">
       <use xlink:href="#DejaVuSans-52"/>
       <use xlink:href="#DejaVuSans-55" transform="translate(61.1875 0)"/>
       <use xlink:href="#DejaVuSans-47" transform="translate(100.546875 0)"/>
       <use xlink:href="#DejaVuSans-48" transform="translate(164.03125 0)"/>
       <use xlink:href="#DejaVuSans-55" transform="translate(225.5625 0)"/>
       <use xlink:href="#DejaVuSans-42" transform="translate(266.671875 0)"/>
       <use xlink:href="#DejaVuSans-45" transform="translate(316.671875 0)"/>
       <use xlink:href="#DejaVuSans-5c" transform="translate(380.15625 0)"/>
       <use xlink:href="#DejaVuSans-42" transform="translate(439.34375 0)"/>
       <use xlink:href="#DejaVuSans-14" transform="translate(489.34375 0)"/>
       <use xlink:href="#DejaVuSans-13" transform="translate(552.96875 0)"/>
       <use xlink:href="#DejaVuSans-13" transform="translate(616.59375 0)"/>
       <use xlink:href="#DejaVuSans-4e" transform="translate(680.21875 0)"/>
      </g>
     </g>
    </g>
    <g id="xtick_10">
     <g id="line2d_10">
      <path d="M 402.293808 386.18 
L 402.293808 53.54 
" clip-path="url(#pc9aa5e2cdf)" style="fill: none; stroke: #cccccc; stroke-linecap: round"/>
     </g>
     <g id="text_10">
      <!-- scan_100k -->
      <g style="fill: #262626" transform="translate(359.160792 442.854629) rotate(-45) scale(0.11 -0.11)">
       <use xlink:href="#DejaVuSans-56"/>
       <use xlink:href="#DejaVuSans-46" transform="translate(52.09375 0)"/>
       <use xlink:href="#DejaVuSans-44" transform="translate(107.078125 0)"/>
       <use xlink:href="#DejaVuSans-51" transform="translate(168.359375 0)"/>
       <use xlink:href="#DejaVuSans-42" transform="translate(231.734375 0)"/>
       <use xlink:href="#DejaVuSans-14" transform="translate(281.734375 0)"/>
       <use xlink:href="#DejaVuSans-13" transform="translate(345.359375 0)"/>
       <use xlink:href="#DejaVuSans-13" transform="translate(408.984375 0)"/>
       <use xlink:href="#DejaVuSans-4e" transform="translate(472.609375 0)"/>
      </g>
     </g>
    </g>
    <g id="xtick_11">
     <g id="line2d_11">
      <path d="M 436.68518 386.18 
L 436.68518 53.54 
" clip-path="url(#pc9aa5e2cdf)" style="fill: none; stroke: #cccccc; stroke-linecap: round"/>
     </g>
     <g id="text_11">
      <!-- select_literal -->
      <g style="fill: #262626" transform="translate(385.534567 450.872225) rotate(-45) scale(0.11 -0.11)">
       <use xlink:href="#DejaVuSans-56"/>
       <use xlink:href="#DejaVuSans-48" transform="translate(52.09375 0)"/>
       <use xlink:href="#DejaVuSans-4f" transform="translate(113.625 0)"/>
       <use xlink:href="#DejaVuSans-48" transform="translate(141.40625 0)"/>
       <use xlink:href="#DejaVuSans-46" transform="translate(202.9375 0)"/>
       <use xlink:href="#DejaVuSans-57" transform="translate(257.921875 0)"/>
       <use xlink:href="#DejaVuSans-42" transform="translate(297.125 0)"/>
       <use xlink:href="#DejaVuSans-4f" transform="translate(347.125 0)"/>
       <use xlink:href="#DejaVuSans-4c" transform="translate(374.90625 0)"/>
       <use xlink:href="#DejaVuSans-57" transform="translate(402.6875 0)"/>
       <use xlink:href="#DejaVuSans-48" transform="translate(441.890625 0)"/>
       <use xlink:href="#DejaVuSans-55" transform="translate(503.421875 0)"/>
       <use xlink:href="#DejaVuSans-44" transform="translate(544.53125 0)"/>
       <use xlink:href="#DejaVuSans-4f" transform="translate(605.8125 0)"/>
      </g>
     </g>
    </g>
    <g id="xtick_12">
     <g id="line2d_12">
      <path d="M 471.076551 386.18 
L 471.076551 53.54 
" clip-path="url(#pc9aa5e2cdf)" style="fill: none; stroke: #cccccc; stroke-linecap: round"/>
     </g>
     <g id="text_12">
      <!-- string_funcs -->
      <g style="fill: #262626" transform="translate(422.066151 448.732012) rotate(-45) scale(0.11 -0.11)">
       <use xlink:href="#DejaVuSans-56"/>
       <use xlink:href="#DejaVuSans-57" transform="translate(52.09375 0)"/>
       <use xlink:href="#DejaVuSans-55" transform="translate(91.296875 0)"/>
       <use xlink:href="#DejaVuSans-4c" transform="translate(132.40625 0)"/>
       <use xlink:href="#DejaVuSans-51" transform="translate(160.1875 0)"/>
       <use xlink:href="#DejaVuSans-4a" transform="translate(223.5625 0)"/>
       <use xlink:href="#DejaVuSans-42" transform="translate(287.046875 0)"/>
       <use xlink:href="#DejaVuSans-49" transform="translate(337.046875 0)"/>
       <use xlink:href="#DejaVuSans-58" transform="translate(372.25 0)"/>
       <use xlink:href="#DejaVuSans-51" transform="translate(435.625 0)"/>
       <use xlink:href="#DejaVuSans-46" transform="translate(499 0)"/>
       <use xlink:href="#DejaVuSans-56" transform="translate(553.984375 0)"/>
      </g>
     </g>
    </g>
    <g id="xtick_13">
     <g id="line2d_13">
      <path d="M 505.467922 386.18 
L 505.467922 53.54 
" clip-path="url(#pc9aa5e2cdf)" style="fill: none; stroke: #cccccc; stroke-linecap: round"/>
     </g>
     <g id="text_13">
      <!-- subquery_in -->
      <g style="fill: #262626" transform="translate(456.246054 448.943481) rotate(-45) scale(0.11 -0.11)">
       <defs>
        <path id="DejaVuSans-54" d="M 947 1747 
Q 947 1113 1208 752 
Q 1469 391 1925 391 
Q 2381 391 2643 752 
Q 2906 1113 2906 1747 
Q 2906 2381 2643 2742 
Q 2381 3103 1925 3103 
Q 1469 3103 1208 2742 
Q 947 2381 947 1747 
z
M 2906 525 
Q 2725 213 2448 61 
Q 2172 -91 1784 -91 
Q 1150 -91 751 415 
Q 353 922 353 1747 
Q 353 2572 751 3078 
Q 1150 3584 1784 3584 
Q 2172 3584 2448 3432 
Q 2725 3281 2906 2969 
L 2906 3500 
L 3481 3500 
L 3481 -1331 
L 2906 -1331 
L 2906 525 
z
" transform="scale(0.015625)"/>
       </defs>
       <use xlink:href="#DejaVuSans-56"/>
       <use xlink:href="#DejaVuSans-58" transform="translate(52.09375 0)"/>
       <use xlink:href="#DejaVuSans-45" transform="translate(115.46875 0)"/>
       <use xlink:href="#DejaVuSans-54" transform="translate(178.953125 0)"/>
       <use xlink:href="#DejaVuSans-58" transform="translate(242.4375 0)"/>
       <use xlink:href="#DejaVuSans-48" transform="translate(305.8125 0)"/>
       <use xlink:href="#DejaVuSans-55" transform="translate(367.34375 0)"/>
       <use xlink:href="#DejaVuSans-5c" transform="translate(408.453125 0)"/>
       <use xlink:href="#DejaVuSans-42" transform="translate(467.640625 0)"/>
       <use xlink:href="#DejaVuSans-4c" transform="translate(517.640625 0)"/>
       <use xlink:href="#DejaVuSans-51" transform="translate(545.421875 0)"/>
      </g>
     </g>
    </g>
    <g id="xtick_14">
     <g id="line2d_14">
      <path d="M 539.859294 386.18 
L 539.859294 53.54 
" clip-path="url(#pc9aa5e2cdf)" style="fill: none; stroke: #cccccc; stroke-linecap: round"/>
     </g>
     <g id="text_14">
      <!-- unnest_array -->
      <g style="fill: #262626" transform="translate(487.030296 452.550002) rotate(-45) scale(0.11 -0.11)">
       <use xlink:href="#DejaVuSans-58"/>
       <use xlink:href="#DejaVuSans-51" transform="translate(63.375 0)"/>
       <use xlink:href="#DejaVuSans-51" transform="translate(126.75 0)"/>
       <use xlink:href="#DejaVuSans-48" transform="translate(190.125 0)"/>
       <use xlink:href="#DejaVuSans-56" transform="translate(251.65625 0)"/>
       <use xlink:href="#DejaVuSans-57" transform="translate(303.75 0)"/>
       <use xlink:href="#DejaVuSans-42" transform="translate(342.953125 0)"/>
       <use xlink:href="#DejaVuSans-44" transform="translate(392.953125 0)"/>
       <use xlink:href="#DejaVuSans-55" transform="translate(454.234375 0)"/>
       <use xlink:href="#DejaVuSans-55" transform="translate(493.59375 0)"/>
       <use xlink:href="#DejaVuSans-44" transform="translate(534.703125 0)"/>
       <use xlink:href="#DejaVuSans-5c" transform="translate(595.984375 0)"/>
      </g>
     </g>
    </g>
    <g id="xtick_15">
     <g id="line2d_15">
      <path d="M 574.250665 386.18 
L 574.250665 53.54 
" clip-path="url(#pc9aa5e2cdf)" style="fill: none; stroke: #cccccc; stroke-linecap: round"/>
     </g>
     <g id="text_15">
      <!-- window_row_number -->
      <g style="fill: #262626" transform="translate(490.590928 483.381349) rotate(-45) scale(0.11 -0.11)">
       <use xlink:href="#DejaVuSans-5a"/>
       <use xlink:href="#DejaVuSans-4c" transform="translate(81.78125 0)"/>
       <use xlink:href="#DejaVuSans-51" transform="translate(109.5625 0)"/>
       <use xlink:href="#DejaVuSans-47" transform="translate(172.9375 0)"/>
       <use xlink:href="#DejaVuSans-52" transform="translate(236.421875 0)"/>
       <use xlink:href="#DejaVuSans-5a" transform="translate(297.609375 0)"/>
       <use xlink:href="#DejaVuSans-42" transform="translate(379.390625 0)"/>
       <use xlink:href="#DejaVuSans-55" transform="translate(429.390625 0)"/>
       <use xlink:href="#DejaVuSans-52" transform="translate(468.296875 0)"/>
       <use xlink:href="#DejaVuSans-5a" transform="translate(529.484375 0)"/>
       <use xlink:href="#DejaVuSans-42" transform="translate(611.265625 0)"/>
       <use xlink:href="#DejaVuSans-51" transform="translate(661.265625 0)"/>
       <use xlink:href="#DejaVuSans-58" transform="translate(724.640625 0)"/>
       <use xlink:href="#DejaVuSans-50" transform="translate(788.015625 0)"/>
       <use xlink:href="#DejaVuSans-45" transform="translate(885.421875 0)"/>
       <use xlink:href="#DejaVuSans-48" transform="translate(948.90625 0)"/>
       <use xlink:href="#DejaVuSans-55" transform="translate(1010.4375 0)"/>
      </g>
     </g>
    </g>
   </g>
   <g id="matplotlib.axis_2">
    <g id="ytick_1">
     <g id="line2d_16">
      <path d="M 54.511066 363.8384 
L 612.511066 363.8384 
" clip-path="url(#pc9aa5e2cdf)" style="fill: none; stroke: #cccccc; stroke-linecap: round"/>
     </g>
     <g id="text_16">
      <!-- $\mathdefault{10^{1}}$ -->
      <g style="fill: #262626" transform="translate(25.651066 368.9534) scale(0.11 -0.11)">
       <use xlink:href="#DejaVuSans-14" transform="translate(0 0.665625)"/>
       <use xlink:href="#DejaVuSans-13" transform="translate(63.623047 0.665625)"/>
       <use xlink:href="#DejaVuSans-14" transform="translate(128.203125 41.965625) scale(0.7)"/>
      </g>
     </g>
    </g>
    <g id="ytick_2">
     <g id="line2d_17">
      <path d="M 54.511066 287.881816 
L 612.511066 287.881816 
" clip-path="url(#pc9aa5e2cdf)" style="fill: none; stroke: #cccccc; stroke-linecap: round"/>
     </g>
     <g id="text_17">
      <!-- $\mathdefault{10^{2}}$ -->
      <g style="fill: #262626" transform="translate(25.651066 293.051816) scale(0.11 -0.11)">
       <defs>
        <path id="DejaVuSans-15" d="M 1228 531 
L 3431 531 
L 3431 0 
L 469 0 
L 469 531 
Q 828 903 1448 1529 
Q 2069 2156 2228 2338 
Q 2531 2678 2651 2914 
Q 2772 3150 2772 3378 
Q 2772 3750 2511 3984 
Q 2250 4219 1831 4219 
Q 1534 4219 1204 4116 
Q 875 4013 500 3803 
L 500 4441 
Q 881 4594 1212 4672 
Q 1544 4750 1819 4750 
Q 2544 4750 2975 4387 
Q 3406 4025 3406 3419 
Q 3406 3131 3298 2873 
Q 3191 2616 2906 2266 
Q 2828 2175 2409 1742 
Q 1991 1309 1228 531 
z
" transform="scale(0.015625)"/>
       </defs>
       <use xlink:href="#DejaVuSans-14" transform="translate(0 0.746875)"/>
       <use xlink:href="#DejaVuSans-13" transform="translate(63.623047 0.746875)"/>
       <use xlink:href="#DejaVuSans-15" transform="translate(128.203125 42.046875) scale(0.7)"/>
      </g>
     </g>
    </g>
    <g id="ytick_3">
     <g id="line2d_18">
      <path d="M 54.511066 211.925232 
L 612.511066 211.925232 
" clip-path="url(#pc9aa5e2cdf)" style="fill: none; stroke: #cccccc; stroke-linecap: round"/>
     </g>
     <g id="text_18">
      <!-- $\mathdefault{10^{3}}$ -->
      <g style="fill: #262626" transform="translate(25.651066 217.095232) scale(0.11 -0.11)">
       <defs>
        <path id="DejaVuSans-16" d="M 2597 2516 
Q 3050 2419 3304 2112 
Q 3559 1806 3559 1356 
Q 3559 666 3084 287 
Q 2609 -91 1734 -91 
Q 1441 -91 1130 -33 
Q 819 25 488 141 
L 488 750 
Q 750 597 1062 519 
Q 1375 441 1716 441 
Q 2309 441 2620 675 
Q 2931 909 2931 1356 
Q 2931 1769 2642 2001 
Q 2353 2234 1838 2234 
L 1294 2234 
L 1294 2753 
L 1863 2753 
Q 2328 2753 2575 2939 
Q 2822 3125 2822 3475 
Q 2822 3834 2567 4026 
Q 2313 4219 1838 4219 
Q 1578 4219 1281 4162 
Q 984 4106 628 3988 
L 628 4550 
Q 988 4650 1302 4700 
Q 1616 4750 1894 4750 
Q 2613 4750 3031 4423 
Q 3450 4097 3450 3541 
Q 3450 3153 3228 2886 
Q 3006 2619 2597 2516 
z
" transform="scale(0.015625)"/>
       </defs>
       <use xlink:href="#DejaVuSans-14" transform="translate(0 0.746875)"/>
       <use xlink:href="#DejaVuSans-13" transform="translate(63.623047 0.746875)"/>
       <use xlink:href="#DejaVuSans-16" transform="translate(128.203125 42.046875) scale(0.7)"/>
      </g>
     </g>
    </g>
    <g id="ytick_4">
     <g id="line2d_19">
      <path d="M 54.511066 135.968648 
L 612.511066 135.968648 
" clip-path="url(#pc9aa5e2cdf)" style="fill: none; stroke: #cccccc; stroke-linecap: round"/>
     </g>
     <g id="text_19">
      <!-- $\mathdefault{10^{4}}$ -->
      <g style="fill: #262626" transform="translate(25.651066 141.083648) scale(0.11 -0.11)">
       <defs>
        <path id="DejaVuSans-17" d="M 2419 4116 
L 825 1625 
L 2419 1625 
L 2419 4116 
z
M 2253 4666 
L 3047 4666 
L 3047 1625 
L 3713 1625 
L 3713 1100 
L 3047 1100 
L 3047 0 
L 2419 0 
L 2419 1100 
L 313 1100 
L 313 1709 
L 2253 4666 
z
" transform="scale(0.015625)"/>
       </defs>
       <use xlink:href="#DejaVuSans-14" transform="translate(0 0.665625)"/>
       <use xlink:href="#DejaVuSans-13" transform="translate(63.623047 0.665625)"/>
       <use xlink:href="#DejaVuSans-17" transform="translate(128.203125 41.965625) scale(0.7)"/>
      </g>
     </g>
    </g>
    <g id="ytick_5">
     <g id="line2d_20">
      <path d="M 54.511066 60.012064 
L 612.511066 60.012064 
" clip-path="url(#pc9aa5e2cdf)" style="fill: none; stroke: #cccccc; stroke-linecap: round"/>
     </g>
     <g id="text_20">
      <!-- $\mathdefault{10^{5}}$ -->
      <g style="fill: #262626" transform="translate(25.651066 65.127064) scale(0.11 -0.11)">
       <defs>
        <path id="DejaVuSans-18" d="M 691 4666 
L 3169 4666 
L 3169 4134 
L 1269 4134 
L 1269 2991 
Q 1406 3038 1543 3061 
Q 1681 3084 1819 3084 
Q 2600 3084 3056 2656 
Q 3513 2228 3513 1497 
Q 3513 744 3044 326 
Q 2575 -91 1722 -91 
Q 1428 -91 1123 -41 
Q 819 9 494 109 
L 494 744 
Q 775 591 1075 516 
Q 1375 441 1709 441 
Q 2250 441 2565 725 
Q 2881 1009 2881 1497 
Q 2881 1984 2565 2268 
Q 2250 2553 1709 2553 
Q 1456 2553 1204 2497 
Q 953 2441 691 2322 
L 691 4666 
z
" transform="scale(0.015625)"/>
       </defs>
       <use xlink:href="#DejaVuSans-14" transform="translate(0 0.665625)"/>
       <use xlink:href="#DejaVuSans-13" transform="translate(63.623047 0.665625)"/>
       <use xlink:href="#DejaVuSans-18" transform="translate(128.203125 41.965625) scale(0.7)"/>
      </g>
     </g>
    </g>
    <g id="ytick_6"/>
    <g id="ytick_7"/>
    <g id="ytick_8"/>
    <g id="ytick_9"/>
    <g id="ytick_10"/>
    <g id="ytick_11"/>
    <g id="ytick_12"/>
    <g id="ytick_13"/>
    <g id="ytick_14"/>
    <g id="ytick_15"/>
    <g id="ytick_16"/>
    <g id="ytick_17"/>
    <g id="ytick_18"/>
    <g id="ytick_19"/>
    <g id="ytick_20"/>
    <g id="ytick_21"/>
    <g id="ytick_22"/>
    <g id="ytick_23"/>
    <g id="ytick_24"/>
    <g id="ytick_25"/>
    <g id="ytick_26"/>
    <g id="ytick_27"/>
    <g id="ytick_28"/>
    <g id="ytick_29"/>
    <g id="ytick_30"/>
    <g id="ytick_31"/>
    <g id="ytick_32"/>
    <g id="ytick_33"/>
    <g id="ytick_34"/>
    <g id="ytick_35"/>
    <g id="ytick_36"/>
    <g id="ytick_37"/>
    <g id="ytick_38"/>
    <g id="ytick_39"/>
    <g id="ytick_40"/>
    <g id="ytick_41"/>
    <g id="text_21">
     <!-- p50 latency (ms) -->
     <g style="fill: #262626" transform="translate(18.768253 270.810312) rotate(-90) scale(0.12 -0.12)">
      <defs>
       <path id="DejaVuSans-3" transform="scale(0.015625)"/>
       <path id="DejaVuSans-b" d="M 1984 4856 
Q 1566 4138 1362 3434 
Q 1159 2731 1159 2009 
Q 1159 1288 1364 580 
Q 1569 -128 1984 -844 
L 1484 -844 
Q 1016 -109 783 600 
Q 550 1309 550 2009 
Q 550 2706 781 3412 
Q 1013 4119 1484 4856 
L 1984 4856 
z
" transform="scale(0.015625)"/>
       <path id="DejaVuSans-c" d="M 513 4856 
L 1013 4856 
Q 1481 4119 1714 3412 
Q 1947 2706 1947 2009 
Q 1947 1309 1714 600 
Q 1481 -109 1013 -844 
L 513 -844 
Q 928 -128 1133 580 
Q 1338 1288 1338 2009 
Q 1338 2731 1133 3434 
Q 928 4138 513 4856 
z
" transform="scale(0.015625)"/>
      </defs>
      <use xlink:href="#DejaVuSans-53"/>
      <use xlink:href="#DejaVuSans-18" transform="translate(63.484375 0)"/>
      <use xlink:href="#DejaVuSans-13" transform="translate(127.109375 0)"/>
      <use xlink:href="#DejaVuSans-3" transform="translate(190.734375 0)"/>
      <use xlink:href="#DejaVuSans-4f" transform="translate(222.515625 0)"/>
      <use xlink:href="#DejaVuSans-44" transform="translate(250.296875 0)"/>
      <use xlink:href="#DejaVuSans-57" transform="translate(311.578125 0)"/>
      <use xlink:href="#DejaVuSans-48" transform="translate(350.78125 0)"/>
      <use xlink:href="#DejaVuSans-51" transform="translate(412.3125 0)"/>
      <use xlink:href="#DejaVuSans-46" transform="translate(475.6875 0)"/>
      <use xlink:href="#DejaVuSans-5c" transform="translate(530.671875 0)"/>
      <use xlink:href="#DejaVuSans-3" transform="translate(589.859375 0)"/>
      <use xlink:href="#DejaVuSans-b" transform="translate(621.640625 0)"/>
      <use xlink:href="#DejaVuSans-50" transform="translate(660.65625 0)"/>
      <use xlink:href="#DejaVuSans-56" transform="translate(758.0625 0)"/>
      <use xlink:href="#DejaVuSans-c" transform="translate(810.15625 0)"/>
     </g>
    </g>
   </g>
   <g id="patch_3">
    <path d="M 79.874702 76396.379137 
L 88.472545 76396.379137 
L 88.472545 321.511277 
L 79.874702 321.511277 
z
" clip-path="url(#pc9aa5e2cdf)" style="fill: #4c72b0; stroke: #ffffff; stroke-linejoin: miter"/>
   </g>
   <g id="patch_4">
    <path d="M 114.266073 76396.379137 
L 122.863916 76396.379137 
L 122.863916 295.398852 
L 114.266073 295.398852 
z
" clip-path="url(#pc9aa5e2cdf)" style="fill: #4c72b0; stroke: #ffffff; stroke-linejoin: miter"/>
   </g>
   <g id="patch_5">
    <path d="M 148.657445 76396.379137 
L 157.255288 76396.379137 
L 157.255288 323.461654 
L 148.657445 323.461654 
z
" clip-path="url(#pc9aa5e2cdf)" style="fill: #4c72b0; stroke: #ffffff; stroke-linejoin: miter"/>
   </g>
   <g id="patch_6">
    <path d="M 183.048816 76396.379137 
L 191.646659 76396.379137 
L 191.646659 306.202209 
L 183.048816 306.202209 
z
" clip-path="url(#pc9aa5e2cdf)" style="fill: #4c72b0; stroke: #ffffff; stroke-linejoin: miter"/>
   </g>
   <g id="patch_7">
    <path d="M 217.440187 76396.379137 
L 226.03803 76396.379137 
L 226.03803 327.905702 
L 217.440187 327.905702 
z
" clip-path="url(#pc9aa5e2cdf)" style="fill: #4c72b0; stroke: #ffffff; stroke-linejoin: miter"/>
   </g>
   <g id="patch_8">
    <path d="M 251.831559 76396.379137 
L 260.429402 76396.379137 
L 260.429402 332.763039 
L 251.831559 332.763039 
z
" clip-path="url(#pc9aa5e2cdf)" style="fill: #4c72b0; stroke: #ffffff; stroke-linejoin: miter"/>
   </g>
   <g id="patch_9">
    <path d="M 286.22293 76396.379137 
L 294.820773 76396.379137 
L 294.820773 332.614416 
L 286.22293 332.614416 
z
" clip-path="url(#pc9aa5e2cdf)" style="fill: #4c72b0; stroke: #ffffff; stroke-linejoin: miter"/>
   </g>
   <g id="patch_10">
    <path d="M 320.614301 76396.379137 
L 329.212144 76396.379137 
L 329.212144 318.688572 
L 320.614301 318.688572 
z
" clip-path="url(#pc9aa5e2cdf)" style="fill: #4c72b0; stroke: #ffffff; stroke-linejoin: miter"/>
   </g>
   <g id="patch_11">
    <path d="M 355.005673 76396.379137 
L 363.603516 76396.379137 
L 363.603516 292.49702 
L 355.005673 292.49702 
z
" clip-path="url(#pc9aa5e2cdf)" style="fill: #4c72b0; stroke: #ffffff; stroke-linejoin: miter"/>
   </g>
   <g id="patch_12">
    <path d="M 389.397044 76396.379137 
L 397.994887 76396.379137 
L 397.994887 334.773507 
L 389.397044 334.773507 
z
" clip-path="url(#pc9aa5e2cdf)" style="fill: #4c72b0; stroke: #ffffff; stroke-linejoin: miter"/>
   </g>
   <g id="patch_13">
    <path d="M 423.788415 76396.379137 
L 432.386258 76396.379137 
L 432.386258 371.06 
L 423.788415 371.06 
z
" clip-path="url(#pc9aa5e2cdf)" style="fill: #4c72b0; stroke: #ffffff; stroke-linejoin: miter"/>
   </g>
   <g id="patch_14">
    <path d="M 458.179787 76396.379137 
L 466.77763 76396.379137 
L 466.77763 334.532663 
L 458.179787 334.532663 
z
" clip-path="url(#pc9aa5e2cdf)" style="fill: #4c72b0; stroke: #ffffff; stroke-linejoin: miter"/>
   </g>
   <g id="patch_15">
    <path d="M 492.571158 76396.379137 
L 501.169001 76396.379137 
L 501.169001 334.90249 
L 492.571158 334.90249 
z
" clip-path="url(#pc9aa5e2cdf)" style="fill: #4c72b0; stroke: #ffffff; stroke-linejoin: miter"/>
   </g>
   <g id="patch_16">
    <path d="M 526.962529 76396.379137 
L 535.560372 76396.379137 
L 535.560372 298.546227 
L 526.962529 298.546227 
z
" clip-path="url(#pc9aa5e2cdf)" style="fill: #4c72b0; stroke: #ffffff; stroke-linejoin: miter"/>
   </g>
   <g id="patch_17">
    <path d="M 561.353901 76396.379137 
L 569.951744 76396.379137 
L 569.951744 310.546204 
L 561.353901 310.546204 
z
" clip-path="url(#pc9aa5e2cdf)" style="fill: #4c72b0; stroke: #ffffff; stroke-linejoin: miter"/>
   </g>
   <g id="patch_18">
    <path clip-path="url(#pc9aa5e2cdf)" style="fill: #dd8452; stroke: #ffffff; stroke-linejoin: miter"/>
   </g>
   <g id="patch_19">
    <path clip-path="url(#pc9aa5e2cdf)" style="fill: #dd8452; stroke: #ffffff; stroke-linejoin: miter"/>
   </g>
   <g id="patch_20">
    <path d="M 157.255288 76396.379137 
L 165.85313 76396.379137 
L 165.85313 209.420432 
L 157.255288 209.420432 
z
" clip-path="url(#pc9aa5e2cdf)" style="fill: #dd8452; stroke: #ffffff; stroke-linejoin: miter"/>
   </g>
   <g id="patch_21">
    <path d="M 191.646659 76396.379137 
L 200.244502 76396.379137 
L 200.244502 210.702446 
L 191.646659 210.702446 
z
" clip-path="url(#pc9aa5e2cdf)" style="fill: #dd8452; stroke: #ffffff; stroke-linejoin: miter"/>
   </g>
   <g id="patch_22">
    <path d="M 226.03803 76396.379137 
L 234.635873 76396.379137 
L 234.635873 215.177065 
L 226.03803 215.177065 
z
" clip-path="url(#pc9aa5e2cdf)" style="fill: #dd8452; stroke: #ffffff; stroke-linejoin: miter"/>
   </g>
   <g id="patch_23">
    <path d="M 260.429402 76396.379137 
L 269.027244 76396.379137 
L 269.027244 234.381585 
L 260.429402 234.381585 
z
" clip-path="url(#pc9aa5e2cdf)" style="fill: #dd8452; stroke: #ffffff; stroke-linejoin: miter"/>
   </g>
   <g id="patch_24">
    <path d="M 294.820773 76396.379137 
L 303.418616 76396.379137 
L 303.418616 68.66 
L 294.820773 68.66 
z
" clip-path="url(#pc9aa5e2cdf)" style="fill: #dd8452; stroke: #ffffff; stroke-linejoin: miter"/>
   </g>
   <g id="patch_25">
    <path clip-path="url(#pc9aa5e2cdf)" style="fill: #dd8452; stroke: #ffffff; stroke-linejoin: miter"/>
   </g>
   <g id="patch_26">
    <path d="M 363.603516 76396.379137 
L 372.201358 76396.379137 
L 372.201358 220.093723 
L 363.603516 220.093723 
z
" clip-path="url(#pc9aa5e2cdf)" style="fill: #dd8452; stroke: #ffffff; stroke-linejoin: miter"/>
   </g>
   <g id="patch_27">
    <path clip-path="url(#pc9aa5e2cdf)" style="fill: #dd8452; stroke: #ffffff; stroke-linejoin: miter"/>
   </g>
   <g id="patch_28">
    <path d="M 432.386258 76396.379137 
L 440.984101 76396.379137 
L 440.984101 248.656996 
L 432.386258 248.656996 
z
" clip-path="url(#pc9aa5e2cdf)" style="fill: #dd8452; stroke: #ffffff; stroke-linejoin: miter"/>
   </g>
   <g id="patch_29">
    <path d="M 466.77763 76396.379137 
L 475.375472 76396.379137 
L 475.375472 233.00156 
L 466.77763 233.00156 
z
" clip-path="url(#pc9aa5e2cdf)" style="fill: #dd8452; stroke: #ffffff; stroke-linejoin: miter"/>
   </g>
   <g id="patch_30">
    <path d="M 501.169001 76396.379137 
L 509.766844 76396.379137 
L 509.766844 242.629583 
L 501.169001 242.629583 
z
" clip-path="url(#pc9aa5e2cdf)" style="fill: #dd8452; stroke: #ffffff; stroke-linejoin: miter"/>
   </g>
   <g id="patch_31">
    <path d="M 535.560372 76396.379137 
L 544.158215 76396.379137 
L 544.158215 232.4665 
L 535.560372 232.4665 
z
" clip-path="url(#pc9aa5e2cdf)" style="fill: #dd8452; stroke: #ffffff; stroke-linejoin: miter"/>
   </g>
   <g id="patch_32">
    <path d="M 569.951744 76396.379137 
L 578.549586 76396.379137 
L 578.549586 224.689599 
L 569.951744 224.689599 
z
" clip-path="url(#pc9aa5e2cdf)" style="fill: #dd8452; stroke: #ffffff; stroke-linejoin: miter"/>
   </g>
   <g id="patch_33">
    <path d="M 97.070388 76396.379137 
L 105.668231 76396.379137 
L 105.668231 195.64668 
L 97.070388 195.64668 
z
" clip-path="url(#pc9aa5e2cdf)" style="fill: #55a868; stroke: #ffffff; stroke-linejoin: miter"/>
   </g>
   <g id="patch_34">
    <path d="M 131.461759 76396.379137 
L 140.059602 76396.379137 
L 140.059602 197.298466 
L 131.461759 197.298466 
z
" clip-path="url(#pc9aa5e2cdf)" style="fill: #55a868; stroke: #ffffff; stroke-linejoin: miter"/>
   </g>
   <g id="patch_35">
    <path d="M 165.85313 76396.379137 
L 174.450973 76396.379137 
L 174.450973 197.810572 
L 165.85313 197.810572 
z
" clip-path="url(#pc9aa5e2cdf)" style="fill: #55a868; stroke: #ffffff; stroke-linejoin: miter"/>
   </g>
   <g id="patch_36">
    <path d="M 200.244502 76396.379137 
L 208.842345 76396.379137 
L 208.842345 201.97669 
L 200.244502 201.97669 
z
" clip-path="url(#pc9aa5e2cdf)" style="fill: #55a868; stroke: #ffffff; stroke-linejoin: miter"/>
   </g>
   <g id="patch_37">
    <path d="M 234.635873 76396.379137 
L 243.233716 76396.379137 
L 243.233716 197.235008 
L 234.635873 197.235008 
z
" clip-path="url(#pc9aa5e2cdf)" style="fill: #55a868; stroke: #ffffff; stroke-linejoin: miter"/>
   </g>
   <g id="patch_38">
    <path d="M 269.027244 76396.379137 
L 277.625087 76396.379137 
L 277.625087 202.270786 
L 269.027244 202.270786 
z
" clip-path="url(#pc9aa5e2cdf)" style="fill: #55a868; stroke: #ffffff; stroke-linejoin: miter"/>
   </g>
   <g id="patch_39">
    <path d="M 303.418616 76396.379137 
L 312.016459 76396.379137 
L 312.016459 200.755234 
L 303.418616 200.755234 
z
" clip-path="url(#pc9aa5e2cdf)" style="fill: #55a868; stroke: #ffffff; stroke-linejoin: miter"/>
   </g>
   <g id="patch_40">
    <path d="M 337.809987 76396.379137 
L 346.40783 76396.379137 
L 346.40783 202.517884 
L 337.809987 202.517884 
z
" clip-path="url(#pc9aa5e2cdf)" style="fill: #55a868; stroke: #ffffff; stroke-linejoin: miter"/>
   </g>
   <g id="patch_41">
    <path d="M 372.201358 76396.379137 
L 380.799201 76396.379137 
L 380.799201 203.627661 
L 372.201358 203.627661 
z
" clip-path="url(#pc9aa5e2cdf)" style="fill: #55a868; stroke: #ffffff; stroke-linejoin: miter"/>
   </g>
   <g id="patch_42">
    <path d="M 406.59273 76396.379137 
L 415.190573 76396.379137 
L 415.190573 200.896609 
L 406.59273 200.896609 
z
" clip-path="url(#pc9aa5e2cdf)" style="fill: #55a868; stroke: #ffffff; stroke-linejoin: miter"/>
   </g>
   <g id="patch_43">
    <path d="M 440.984101 76396.379137 
L 449.581944 76396.379137 
L 449.581944 202.098911 
L 440.984101 202.098911 
z
" clip-path="url(#pc9aa5e2cdf)" style="fill: #55a868; stroke: #ffffff; stroke-linejoin: miter"/>
   </g>
   <g id="patch_44">
    <path d="M 475.375472 76396.379137 
L 483.973315 76396.379137 
L 483.973315 202.766848 
L 475.375472 202.766848 
z
" clip-path="url(#pc9aa5e2cdf)" style="fill: #55a868; stroke: #ffffff; stroke-linejoin: miter"/>
   </g>
   <g id="patch_45">
    <path d="M 509.766844 76396.379137 
L 518.364687 76396.379137 
L 518.364687 203.423087 
L 509.766844 203.423087 
z
" clip-path="url(#pc9aa5e2cdf)" style="fill: #55a868; stroke: #ffffff; stroke-linejoin: miter"/>
   </g>
   <g id="patch_46">
    <path d="M 544.158215 76396.379137 
L 552.756058 76396.379137 
L 552.756058 202.468316 
L 544.158215 202.468316 
z
" clip-path="url(#pc9aa5e2cdf)" style="fill: #55a868; stroke: #ffffff; stroke-linejoin: miter"/>
   </g>
   <g id="patch_47">
    <path d="M 578.549586 76396.379137 
L 587.147429 76396.379137 
L 587.147429 201.420231 
L 578.549586 201.420231 
z
" clip-path="url(#pc9aa5e2cdf)" style="fill: #55a868; stroke: #ffffff; stroke-linejoin: miter"/>
   </g>
   <g id="patch_48">
    <path d="M 54.511066 386.18 
L 54.511066 53.54 
" style="fill: none; stroke: #cccccc; stroke-width: 1.25; stroke-linejoin: miter; stroke-linecap: square"/>
   </g>
   <g id="patch_49">
    <path d="M 612.511066 386.18 
L 612.511066 53.54 
" style="fill: none; stroke: #cccccc; stroke-width: 1.25; stroke-linejoin: miter; stroke-linecap: square"/>
   </g>
   <g id="patch_50">
    <path d="M 54.511066 386.18 
L 612.511066 386.18 
" style="fill: none; stroke: #cccccc; stroke-width: 1.25; stroke-linejoin: miter; stroke-linecap: square"/>
   </g>
   <g id="patch_51">
    <path d="M 54.511066 53.54 
L 612.511066 53.54 
" style="fill: none; stroke: #cccccc; stroke-width: 1.25; stroke-linejoin: miter; stroke-linecap: square"/>
   </g>
   <g id="text_22">
    <!-- Benchmark comparison -->
    <g style="fill: #262626" transform="translate(262.396066 47.54) scale(0.12 -0.12)">
     <defs>
      <path id="DejaVuSans-25" d="M 1259 2228 
L 1259 519 
L 2272 519 
Q 2781 519 3026 730 
Q 3272 941 3272 1375 
Q 3272 1813 3026 2020 
Q 2781 2228 2272 2228 
L 1259 2228 
z
M 1259 4147 
L 1259 2741 
L 2194 2741 
Q 2656 2741 2882 2914 
Q 3109 3088 3109 3444 
Q 3109 3797 2882 3972 
Q 2656 4147 2194 4147 
L 1259 4147 
z
M 628 4666 
L 2241 4666 
Q 2963 4666 3353 4366 
Q 3744 4066 3744 3513 
Q 3744 3084 3544 2831 
Q 3344 2578 2956 2516 
Q 3422 2416 3680 2098 
Q 3938 1781 3938 1306 
Q 3938 681 3513 340 
Q 3088 0 2303 0 
L 628 0 
L 628 4666 
z
" transform="scale(0.015625)"/>
     </defs>
     <use xlink:href="#DejaVuSans-25"/>
     <use xlink:href="#DejaVuSans-48" transform="translate(68.609375 0)"/>
     <use xlink:href="#DejaVuSans-51" transform="translate(130.140625 0)"/>
     <use xlink:href="#DejaVuSans-46" transform="translate(193.515625 0)"/>
     <use xlink:href="#DejaVuSans-4b" transform="translate(248.5 0)"/>
     <use xlink:href="#DejaVuSans-50" transform="translate(311.875 0)"/>
     <use xlink:href="#DejaVuSans-44" transform="translate(409.28125 0)"/>
     <use xlink:href="#DejaVuSans-55" transform="translate(470.5625 0)"/>
     <use xlink:href="#DejaVuSans-4e" transform="translate(511.671875 0)"/>
     <use xlink:href="#DejaVuSans-3" transform="translate(569.578125 0)"/>
     <use xlink:href="#DejaVuSans-46" transform="translate(601.359375 0)"/>
     <use xlink:href="#DejaVuSans-52" transform="translate(656.34375 0)"/>
     <use xlink:href="#DejaVuSans-50" transform="translate(717.53125 0)"/>
     <use xlink:href="#DejaVuSans-53" transform="translate(814.9375 0)"/>
     <use xlink:href="#DejaVuSans-44" transform="translate(878.421875 0)"/>
     <use xlink:href="#DejaVuSans-55" transform="translate(939.703125 0)"/>
     <use xlink:href="#DejaVuSans-4c" transform="translate(980.8125 0)"/>
     <use xlink:href="#DejaVuSans-56" transform="translate(1008.59375 0)"/>
     <use xlink:href="#DejaVuSans-52" transform="translate(1060.6875 0)"/>
     <use xlink:href="#DejaVuSans-51" transform="translate(1121.875 0)"/>
    </g>
   </g>
  </g>
  <g id="legend_1">
   <g id="patch_52">
    <path d="M 544.962472 58.302578 
L 678.511066 58.302578 
Q 680.711066 58.302578 680.711066 56.102578 
L 680.711066 7.7 
Q 680.711066 5.5 678.511066 5.5 
L 544.962472 5.5 
Q 542.762472 5.5 542.762472 7.7 
L 542.762472 56.102578 
Q 542.762472 58.302578 544.962472 58.302578 
z
" style="fill: #ffffff; opacity: 0.8; stroke: #cccccc; stroke-linejoin: miter"/>
   </g>
   <g id="patch_53">
    <path d="M 547.162472 18.258281 
L 569.162472 18.258281 
L 569.162472 10.558281 
L 547.162472 10.558281 
z
" style="fill: #4c72b0; stroke: #ffffff; stroke-linejoin: miter"/>
   </g>
   <g id="text_23">
    <!-- vantaboard -->
    <g style="fill: #262626" transform="translate(577.962472 18.258281) scale(0.11 -0.11)">
     <defs>
      <path id="DejaVuSans-59" d="M 191 3500 
L 800 3500 
L 1894 563 
L 2988 3500 
L 3597 3500 
L 2284 0 
L 1503 0 
L 191 3500 
z
" transform="scale(0.015625)"/>
     </defs>
     <use xlink:href="#DejaVuSans-59"/>
     <use xlink:href="#DejaVuSans-44" transform="translate(59.1875 0)"/>
     <use xlink:href="#DejaVuSans-51" transform="translate(120.46875 0)"/>
     <use xlink:href="#DejaVuSans-57" transform="translate(183.84375 0)"/>
     <use xlink:href="#DejaVuSans-44" transform="translate(223.046875 0)"/>
     <use xlink:href="#DejaVuSans-45" transform="translate(284.328125 0)"/>
     <use xlink:href="#DejaVuSans-52" transform="translate(347.8125 0)"/>
     <use xlink:href="#DejaVuSans-44" transform="translate(409 0)"/>
     <use xlink:href="#DejaVuSans-55" transform="translate(470.28125 0)"/>
     <use xlink:href="#DejaVuSans-47" transform="translate(509.640625 0)"/>
    </g>
   </g>
   <g id="patch_54">
    <path d="M 547.162472 34.759141 
L 569.162472 34.759141 
L 569.162472 27.059141 
L 547.162472 27.059141 
z
" style="fill: #dd8452; stroke: #ffffff; stroke-linejoin: miter"/>
   </g>
   <g id="text_24">
    <!-- goccy -->
    <g style="fill: #262626" transform="translate(577.962472 34.759141) scale(0.11 -0.11)">
     <use xlink:href="#DejaVuSans-4a"/>
     <use xlink:href="#DejaVuSans-52" transform="translate(63.484375 0)"/>
     <use xlink:href="#DejaVuSans-46" transform="translate(124.671875 0)"/>
     <use xlink:href="#DejaVuSans-46" transform="translate(179.65625 0)"/>
     <use xlink:href="#DejaVuSans-5c" transform="translate(234.640625 0)"/>
    </g>
   </g>
   <g id="patch_55">
    <path d="M 547.162472 51.26 
L 569.162472 51.26 
L 569.162472 43.56 
L 547.162472 43.56 
z
" style="fill: #55a868; stroke: #ffffff; stroke-linejoin: miter"/>
   </g>
   <g id="text_25">
    <!-- bigquery baseline -->
    <g style="fill: #262626" transform="translate(577.962472 51.26) scale(0.11 -0.11)">
     <use xlink:href="#DejaVuSans-45"/>
     <use xlink:href="#DejaVuSans-4c" transform="translate(63.484375 0)"/>
     <use xlink:href="#DejaVuSans-4a" transform="translate(91.265625 0)"/>
     <use xlink:href="#DejaVuSans-54" transform="translate(154.75 0)"/>
     <use xlink:href="#DejaVuSans-58" transform="translate(218.234375 0)"/>
     <use xlink:href="#DejaVuSans-48" transform="translate(281.609375 0)"/>
     <use xlink:href="#DejaVuSans-55" transform="translate(343.140625 0)"/>
     <use xlink:href="#DejaVuSans-5c" transform="translate(384.25 0)"/>
     <use xlink:href="#DejaVuSans-3" transform="translate(443.4375 0)"/>
     <use xlink:href="#DejaVuSans-45" transform="translate(475.21875 0)"/>
     <use xlink:href="#DejaVuSans-44" transform="translate(538.703125 0)"/>
     <use xlink:href="#DejaVuSans-56" transform="translate(599.984375 0)"/>
     <use xlink:href="#DejaVuSans-48" transform="translate(652.078125 0)"/>
     <use xlink:href="#DejaVuSans-4f" transform="translate(713.609375 0)"/>
     <use xlink:href="#DejaVuSans-4c" transform="translate(741.390625 0)"/>
     <use xlink:href="#DejaVuSans-51" transform="translate(769.171875 0)"/>
     <use xlink:href="#DejaVuSans-48" transform="translate(832.546875 0)"/>
    </g>
   </g>
  </g>
 </g>
 <defs>
  <clipPath id="pc9aa5e2cdf">
   <rect x="54.511066" y="53.54" width="558" height="332.64"/>
  </clipPath>
 </defs>
</svg>
