<?xml version="1.0" encoding="utf-8" standalone="no"?>
<!DOCTYPE svg PUBLIC "-//W3C//DTD SVG 1.1//EN"
  "http://www.w3.org/Graphics/SVG/1.1/DTD/svg11.dtd">
<svg xmlns:xlink="http://www.w3.org/1999/xlink" width="699.10783pt" height="428.369934pt" viewBox="0 0 699.10783 428.369934" xmlns="http://www.w3.org/2000/svg" version="1.1">
 <metadata>
  <rdf:RDF xmlns:dc="http://purl.org/dc/elements/1.1/" xmlns:cc="http://creativecommons.org/ns#" xmlns:rdf="http://www.w3.org/1999/02/22-rdf-syntax-ns#">
   <cc:Work>
    <dc:type rdf:resource="http://purl.org/dc/dcmitype/StillImage"/>
    <dc:date>2026-06-13T13:02:33.937416</dc:date>
    <dc:format>image/svg+xml</dc:format>
    <dc:creator>
     <cc:Agent>
      <dc:title>Matplotlib v3.11.0, https://matplotlib.org/</dc:title>
     </cc:Agent>
    </dc:creator>
   </cc:Work>
  </rdf:RDF>
 </metadata>
 <defs>
  <style type="text/css">*{stroke-linejoin: round; stroke-linecap: butt}</style>
 </defs>
 <g id="figure_1">
  <g id="patch_1">
   <path d="M 0 428.369934 
L 699.10783 428.369934 
L 699.10783 0 
L 0 0 
z
" style="fill: #ffffff"/>
  </g>
  <g id="axes_1">
   <g id="patch_2">
    <path d="M 67.40783 322.1 
L 625.40783 322.1 
L 625.40783 44.9 
L 67.40783 44.9 
z
" style="fill: #ffffff"/>
   </g>
   <g id="matplotlib.axis_1">
    <g id="xtick_1">
     <g id="line2d_1">
      <path d="M 92.771466 322.1 
L 92.771466 44.9 
" clip-path="url(#p694753785d)" style="fill: none; stroke: #cccccc; stroke-linecap: round"/>
     </g>
     <g id="text_1">
      <!-- agg_group_by_100k -->
      <g style="fill: #262626" transform="translate(13.110197 415.302881) rotate(-45) scale(0.11 -0.11)">
       <defs>
        <path id="DejaVuSans-44" d="M 2194 1759 
Q 1497 1759 1228 1600 
Q 959 1441 959 1056 
Q 959 750 1161 570 
Q 1363 391 1709 391 
Q 2188 391 2477 730 
Q 2766 1069 2766 1631 
L 2766 1759 
L 2194 1759 
z
M 3341 1997 
L 3341 0 
L 2766 0 
L 2766 531 
Q 2569 213 2275 61 
Q 1981 -91 1556 -91 
Q 1019 -91 701 211 
Q 384 513 384 1019 
Q 384 1609 779 1909 
Q 1175 2209 1959 2209 
L 2766 2209 
L 2766 2266 
Q 2766 2663 2505 2880 
Q 2244 3097 1772 3097 
Q 1472 3097 1187 3025 
Q 903 2953 641 2809 
L 641 3341 
Q 956 3463 1253 3523 
Q 1550 3584 1831 3584 
Q 2591 3584 2966 3190 
Q 3341 2797 3341 1997 
z
" transform="scale(0.015625)"/>
        <path id="DejaVuSans-4a" d="M 2906 1791 
Q 2906 2416 2648 2759 
Q 2391 3103 1925 3103 
Q 1463 3103 1205 2759 
Q 947 2416 947 1791 
Q 947 1169 1205 825 
Q 1463 481 1925 481 
Q 2391 481 2648 825 
Q 2906 1169 2906 1791 
z
M 3481 434 
Q 3481 -459 3084 -895 
Q 2688 -1331 1869 -1331 
Q 1566 -1331 1297 -1286 
Q 1028 -1241 775 -1147 
L 775 -588 
Q 1028 -725 1275 -790 
Q 1522 -856 1778 -856 
Q 2344 -856 2625 -561 
Q 2906 -266 2906 331 
L 2906 616 
Q 2728 306 2450 153 
Q 2172 0 1784 0 
Q 1141 0 747 490 
Q 353 981 353 1791 
Q 353 2603 747 3093 
Q 1141 3584 1784 3584 
Q 2172 3584 2450 3431 
Q 2728 3278 2906 2969 
L 2906 3500 
L 3481 3500 
L 3481 434 
z
" transform="scale(0.015625)"/>
        <path id="DejaVuSans-42" d="M 3263 -1063 
L 3263 -1509 
L -63 -1509 
L -63 -1063 
L 3263 -1063 
z
" transform="scale(0.015625)"/>
        <path id="DejaVuSans-55" d="M 2631 2963 
Q 2534 3019 2420 3045 
Q 2306 3072 2169 3072 
Q 1681 3072 1420 2755 
Q 1159 2438 1159 1844 
L 1159 0 
L 581 0 
L 581 3500 
L 1159 3500 
L 1159 2956 
Q 1341 3275 1631 3429 
Q 1922 3584 2338 3584 
Q 2397 3584 2469 3576 
Q 2541 3569 2628 3553 
L 2631 2963 
z
" transform="scale(0.015625)"/>
        <path id="DejaVuSans-52" d="M 1959 3097 
Q 1497 3097 1228 2736 
Q 959 2375 959 1747 
Q 959 1119 1226 758 
Q 1494 397 1959 397 
Q 2419 397 2687 759 
Q 2956 1122 2956 1747 
Q 2956 2369 2687 2733 
Q 2419 3097 1959 3097 
z
M 1959 3584 
Q 2709 3584 3137 3096 
Q 3566 2609 3566 1747 
Q 3566 888 3137 398 
Q 2709 -91 1959 -91 
Q 1206 -91 779 398 
Q 353 888 353 1747 
Q 353 2609 779 3096 
Q 1206 3584 1959 3584 
z
" transform="scale(0.015625)"/>
        <path id="DejaVuSans-58" d="M 544 1381 
L 544 3500 
L 1119 3500 
L 1119 1403 
Q 1119 906 1312 657 
Q 1506 409 1894 409 
Q 2359 409 2629 706 
Q 2900 1003 2900 1516 
L 2900 3500 
L 3475 3500 
L 3475 0 
L 2900 0 
L 2900 538 
Q 2691 219 2414 64 
Q 2138 -91 1772 -91 
Q 1169 -91 856 284 
Q 544 659 544 1381 
z
M 1991 3584 
L 1991 3584 
z
" transform="scale(0.015625)"/>
        <path id="DejaVuSans-53" d="M 1159 525 
L 1159 -1331 
L 581 -1331 
L 581 3500 
L 1159 3500 
L 1159 2969 
Q 1341 3281 1617 3432 
Q 1894 3584 2278 3584 
Q 2916 3584 3314 3078 
Q 3713 2572 3713 1747 
Q 3713 922 3314 415 
Q 2916 -91 2278 -91 
Q 1894 -91 1617 61 
Q 1341 213 1159 525 
z
M 3116 1747 
Q 3116 2381 2855 2742 
Q 2594 3103 2138 3103 
Q 1681 3103 1420 2742 
Q 1159 2381 1159 1747 
Q 1159 1113 1420 752 
Q 1681 391 2138 391 
Q 2594 391 2855 752 
Q 3116 1113 3116 1747 
z
" transform="scale(0.015625)"/>
        <path id="DejaVuSans-45" d="M 3116 1747 
Q 3116 2381 2855 2742 
Q 2594 3103 2138 3103 
Q 1681 3103 1420 2742 
Q 1159 2381 1159 1747 
Q 1159 1113 1420 752 
Q 1681 391 2138 391 
Q 2594 391 2855 752 
Q 3116 1113 3116 1747 
z
M 1159 2969 
Q 1341 3281 1617 3432 
Q 1894 3584 2278 3584 
Q 2916 3584 3314 3078 
Q 3713 2572 3713 1747 
Q 3713 922 3314 415 
Q 2916 -91 2278 -91 
Q 1894 -91 1617 61 
Q 1341 213 1159 525 
L 1159 0 
L 581 0 
L 581 4863 
L 1159 4863 
L 1159 2969 
z
" transform="scale(0.015625)"/>
        <path id="DejaVuSans-5c" d="M 2059 -325 
Q 1816 -950 1584 -1140 
Q 1353 -1331 966 -1331 
L 506 -1331 
L 506 -850 
L 844 -850 
Q 1081 -850 1212 -737 
Q 1344 -625 1503 -206 
L 1606 56 
L 191 3500 
L 800 3500 
L 1894 763 
L 2988 3500 
L 3597 3500 
L 2059 -325 
z
" transform="scale(0.015625)"/>
        <path id="DejaVuSans-14" d="M 794 531 
L 1825 531 
L 1825 4091 
L 703 3866 
L 703 4441 
L 1819 4666 
L 2450 4666 
L 2450 531 
L 3481 531 
L 3481 0 
L 794 0 
L 794 531 
z
" transform="scale(0.015625)"/>
        <path id="DejaVuSans-13" d="M 2034 4250 
Q 1547 4250 1301 3770 
Q 1056 3291 1056 2328 
Q 1056 1369 1301 889 
Q 1547 409 2034 409 
Q 2525 409 2770 889 
Q 3016 1369 3016 2328 
Q 3016 3291 2770 3770 
Q 2525 4250 2034 4250 
z
M 2034 4750 
Q 2819 4750 3233 4129 
Q 3647 3509 3647 2328 
Q 3647 1150 3233 529 
Q 2819 -91 2034 -91 
Q 1250 -91 836 529 
Q 422 1150 422 2328 
Q 422 3509 836 4129 
Q 1250 4750 2034 4750 
z
" transform="scale(0.015625)"/>
        <path id="DejaVuSans-4e" d="M 581 4863 
L 1159 4863 
L 1159 1991 
L 2875 3500 
L 3609 3500 
L 1753 1863 
L 3688 0 
L 2938 0 
L 1159 1709 
L 1159 0 
L 581 0 
L 581 4863 
z
" transform="scale(0.015625)"/>
       </defs>
       <use xlink:href="#DejaVuSans-44"/>
       <use xlink:href="#DejaVuSans-4a" transform="translate(61.28125 0)"/>
       <use xlink:href="#DejaVuSans-4a" transform="translate(124.765625 0)"/>
       <use xlink:href="#DejaVuSans-42" transform="translate(188.25 0)"/>
       <use xlink:href="#DejaVuSans-4a" transform="translate(238.25 0)"/>
       <use xlink:href="#DejaVuSans-55" transform="translate(301.734375 0)"/>
       <use xlink:href="#DejaVuSans-52" transform="translate(340.640625 0)"/>
       <use xlink:href="#DejaVuSans-58" transform="translate(401.828125 0)"/>
       <use xlink:href="#DejaVuSans-53" transform="translate(465.203125 0)"/>
       <use xlink:href="#DejaVuSans-42" transform="translate(528.6875 0)"/>
       <use xlink:href="#DejaVuSans-45" transform="translate(578.6875 0)"/>
       <use xlink:href="#DejaVuSans-5c" transform="translate(642.171875 0)"/>
       <use xlink:href="#DejaVuSans-42" transform="translate(701.359375 0)"/>
       <use xlink:href="#DejaVuSans-14" transform="translate(751.359375 0)"/>
       <use xlink:href="#DejaVuSans-13" transform="translate(814.984375 0)"/>
       <use xlink:href="#DejaVuSans-13" transform="translate(878.609375 0)"/>
       <use xlink:href="#DejaVuSans-4e" transform="translate(942.234375 0)"/>
      </g>
     </g>
    </g>
    <g id="xtick_2">
     <g id="line2d_2">
      <path d="M 129.005232 322.1 
L 129.005232 44.9 
" clip-path="url(#p694753785d)" style="fill: none; stroke: #cccccc; stroke-linecap: round"/>
     </g>
     <g id="text_2">
      <!-- agg_group_by_1m -->
      <g style="fill: #262626" transform="translate(56.169312 408.477533) rotate(-45) scale(0.11 -0.11)">
       <defs>
        <path id="DejaVuSans-50" d="M 3328 2828 
Q 3544 3216 3844 3400 
Q 4144 3584 4550 3584 
Q 5097 3584 5394 3201 
Q 5691 2819 5691 2113 
L 5691 0 
L 5113 0 
L 5113 2094 
Q 5113 2597 4934 2840 
Q 4756 3084 4391 3084 
Q 3944 3084 3684 2787 
Q 3425 2491 3425 1978 
L 3425 0 
L 2847 0 
L 2847 2094 
Q 2847 2600 2669 2842 
Q 2491 3084 2119 3084 
Q 1678 3084 1418 2786 
Q 1159 2488 1159 1978 
L 1159 0 
L 581 0 
L 581 3500 
L 1159 3500 
L 1159 2956 
Q 1356 3278 1631 3431 
Q 1906 3584 2284 3584 
Q 2666 3584 2933 3390 
Q 3200 3197 3328 2828 
z
" transform="scale(0.015625)"/>
       </defs>
       <use xlink:href="#DejaVuSans-44"/>
       <use xlink:href="#DejaVuSans-4a" transform="translate(61.28125 0)"/>
       <use xlink:href="#DejaVuSans-4a" transform="translate(124.765625 0)"/>
       <use xlink:href="#DejaVuSans-42" transform="translate(188.25 0)"/>
       <use xlink:href="#DejaVuSans-4a" transform="translate(238.25 0)"/>
       <use xlink:href="#DejaVuSans-55" transform="translate(301.734375 0)"/>
       <use xlink:href="#DejaVuSans-52" transform="translate(340.640625 0)"/>
       <use xlink:href="#DejaVuSans-58" transform="translate(401.828125 0)"/>
       <use xlink:href="#DejaVuSans-53" transform="translate(465.203125 0)"/>
       <use xlink:href="#DejaVuSans-42" transform="translate(528.6875 0)"/>
       <use xlink:href="#DejaVuSans-45" transform="translate(578.6875 0)"/>
       <use xlink:href="#DejaVuSans-5c" transform="translate(642.171875 0)"/>
       <use xlink:href="#DejaVuSans-42" transform="translate(701.359375 0)"/>
       <use xlink:href="#DejaVuSans-14" transform="translate(751.359375 0)"/>
       <use xlink:href="#DejaVuSans-50" transform="translate(814.984375 0)"/>
      </g>
     </g>
    </g>
    <g id="xtick_3">
     <g id="line2d_3">
      <path d="M 165.238999 322.1 
L 165.238999 44.9 
" clip-path="url(#p694753785d)" style="fill: none; stroke: #cccccc; stroke-linecap: round"/>
     </g>
     <g id="text_3">
      <!-- case_when -->
      <g style="fill: #262626" transform="translate(120.5941 380.286512) rotate(-45) scale(0.11 -0.11)">
       <defs>
        <path id="DejaVuSans-46" d="M 3122 3366 
L 3122 2828 
Q 2878 2963 2633 3030 
Q 2388 3097 2138 3097 
Q 1578 3097 1268 2742 
Q 959 2388 959 1747 
Q 959 1106 1268 751 
Q 1578 397 2138 397 
Q 2388 397 2633 464 
Q 2878 531 3122 666 
L 3122 134 
Q 2881 22 2623 -34 
Q 2366 -91 2075 -91 
Q 1284 -91 818 406 
Q 353 903 353 1747 
Q 353 2603 823 3093 
Q 1294 3584 2113 3584 
Q 2378 3584 2631 3529 
Q 2884 3475 3122 3366 
z
" transform="scale(0.015625)"/>
        <path id="DejaVuSans-56" d="M 2834 3397 
L 2834 2853 
Q 2591 2978 2328 3040 
Q 2066 3103 1784 3103 
Q 1356 3103 1142 2972 
Q 928 2841 928 2578 
Q 928 2378 1081 2264 
Q 1234 2150 1697 2047 
L 1894 2003 
Q 2506 1872 2764 1633 
Q 3022 1394 3022 966 
Q 3022 478 2636 193 
Q 2250 -91 1575 -91 
Q 1294 -91 989 -36 
Q 684 19 347 128 
L 347 722 
Q 666 556 975 473 
Q 1284 391 1588 391 
Q 1994 391 2212 530 
Q 2431 669 2431 922 
Q 2431 1156 2273 1281 
Q 2116 1406 1581 1522 
L 1381 1569 
Q 847 1681 609 1914 
Q 372 2147 372 2553 
Q 372 3047 722 3315 
Q 1072 3584 1716 3584 
Q 2034 3584 2315 3537 
Q 2597 3491 2834 3397 
z
" transform="scale(0.015625)"/>
        <path id="DejaVuSans-48" d="M 3597 1894 
L 3597 1613 
L 953 1613 
Q 991 1019 1311 708 
Q 1631 397 2203 397 
Q 2534 397 2845 478 
Q 3156 559 3463 722 
L 3463 178 
Q 3153 47 2828 -22 
Q 2503 -91 2169 -91 
Q 1331 -91 842 396 
Q 353 884 353 1716 
Q 353 2575 817 3079 
Q 1281 3584 2069 3584 
Q 2775 3584 3186 3129 
Q 3597 2675 3597 1894 
z
M 3022 2063 
Q 3016 2534 2758 2815 
Q 2500 3097 2075 3097 
Q 1594 3097 1305 2825 
Q 1016 2553 972 2059 
L 3022 2063 
z
" transform="scale(0.015625)"/>
        <path id="DejaVuSans-5a" d="M 269 3500 
L 844 3500 
L 1563 769 
L 2278 3500 
L 2956 3500 
L 3675 769 
L 4391 3500 
L 4966 3500 
L 4050 0 
L 3372 0 
L 2619 2869 
L 1863 0 
L 1184 0 
L 269 3500 
z
" transform="scale(0.015625)"/>
        <path id="DejaVuSans-4b" d="M 3513 2113 
L 3513 0 
L 2938 0 
L 2938 2094 
Q 2938 2591 2744 2837 
Q 2550 3084 2163 3084 
Q 1697 3084 1428 2787 
Q 1159 2491 1159 1978 
L 1159 0 
L 581 0 
L 581 4863 
L 1159 4863 
L 1159 2956 
Q 1366 3272 1645 3428 
Q 1925 3584 2291 3584 
Q 2894 3584 3203 3211 
Q 3513 2838 3513 2113 
z
" transform="scale(0.015625)"/>
        <path id="DejaVuSans-51" d="M 3513 2113 
L 3513 0 
L 2938 0 
L 2938 2094 
Q 2938 2591 2744 2837 
Q 2550 3084 2163 3084 
Q 1697 3084 1428 2787 
Q 1159 2491 1159 1978 
L 1159 0 
L 581 0 
L 581 3500 
L 1159 3500 
L 1159 2956 
Q 1366 3272 1645 3428 
Q 1925 3584 2291 3584 
Q 2894 3584 3203 3211 
Q 3513 2838 3513 2113 
z
" transform="scale(0.015625)"/>
       </defs>
       <use xlink:href="#DejaVuSans-46"/>
       <use xlink:href="#DejaVuSans-44" transform="translate(54.984375 0)"/>
       <use xlink:href="#DejaVuSans-56" transform="translate(116.265625 0)"/>
       <use xlink:href="#DejaVuSans-48" transform="translate(168.359375 0)"/>
       <use xlink:href="#DejaVuSans-42" transform="translate(229.890625 0)"/>
       <use xlink:href="#DejaVuSans-5a" transform="translate(279.890625 0)"/>
       <use xlink:href="#DejaVuSans-4b" transform="translate(361.671875 0)"/>
       <use xlink:href="#DejaVuSans-48" transform="translate(425.046875 0)"/>
       <use xlink:href="#DejaVuSans-51" transform="translate(486.578125 0)"/>
      </g>
     </g>
    </g>
    <g id="xtick_4">
     <g id="line2d_4">
      <path d="M 201.472765 322.1 
L 201.472765 44.9 
" clip-path="url(#p694753785d)" style="fill: none; stroke: #cccccc; stroke-linecap: round"/>
     </g>
     <g id="text_4">
      <!-- date_funcs -->
      <g style="fill: #262626" transform="translate(157.249589 379.864789) rotate(-45) scale(0.11 -0.11)">
       <defs>
        <path id="DejaVuSans-47" d="M 2906 2969 
L 2906 4863 
L 3481 4863 
L 3481 0 
L 2906 0 
L 2906 525 
Q 2725 213 2448 61 
Q 2172 -91 1784 -91 
Q 1150 -91 751 415 
Q 353 922 353 1747 
Q 353 2572 751 3078 
Q 1150 3584 1784 3584 
Q 2172 3584 2448 3432 
Q 2725 3281 2906 2969 
z
M 947 1747 
Q 947 1113 1208 752 
Q 1469 391 1925 391 
Q 2381 391 2643 752 
Q 2906 1113 2906 1747 
Q 2906 2381 2643 2742 
Q 2381 3103 1925 3103 
Q 1469 3103 1208 2742 
Q 947 2381 947 1747 
z
" transform="scale(0.015625)"/>
        <path id="DejaVuSans-57" d="M 1172 4494 
L 1172 3500 
L 2356 3500 
L 2356 3053 
L 1172 3053 
L 1172 1153 
Q 1172 725 1289 603 
Q 1406 481 1766 481 
L 2356 481 
L 2356 0 
L 1766 0 
Q 1100 0 847 248 
Q 594 497 594 1153 
L 594 3053 
L 172 3053 
L 172 3500 
L 594 3500 
L 594 4494 
L 1172 4494 
z
" transform="scale(0.015625)"/>
        <path id="DejaVuSans-49" d="M 2375 4863 
L 2375 4384 
L 1825 4384 
Q 1516 4384 1395 4259 
Q 1275 4134 1275 3809 
L 1275 3500 
L 2222 3500 
L 2222 3053 
L 1275 3053 
L 1275 0 
L 697 0 
L 697 3053 
L 147 3053 
L 147 3500 
L 697 3500 
L 697 3744 
Q 697 4328 969 4595 
Q 1241 4863 1831 4863 
L 2375 4863 
z
" transform="scale(0.015625)"/>
       </defs>
       <use xlink:href="#DejaVuSans-47"/>
       <use xlink:href="#DejaVuSans-44" transform="translate(63.484375 0)"/>
       <use xlink:href="#DejaVuSans-57" transform="translate(124.765625 0)"/>
       <use xlink:href="#DejaVuSans-48" transform="translate(163.96875 0)"/>
       <use xlink:href="#DejaVuSans-42" transform="translate(225.5 0)"/>
       <use xlink:href="#DejaVuSans-49" transform="translate(275.5 0)"/>
       <use xlink:href="#DejaVuSans-58" transform="translate(310.703125 0)"/>
       <use xlink:href="#DejaVuSans-51" transform="translate(374.078125 0)"/>
       <use xlink:href="#DejaVuSans-46" transform="translate(437.453125 0)"/>
       <use xlink:href="#DejaVuSans-56" transform="translate(492.4375 0)"/>
      </g>
     </g>
    </g>
    <g id="xtick_5">
     <g id="line2d_5">
      <path d="M 237.706531 322.1 
L 237.706531 44.9 
" clip-path="url(#p694753785d)" style="fill: none; stroke: #cccccc; stroke-linecap: round"/>
     </g>
     <g id="text_5">
      <!-- distinct_count -->
      <g style="fill: #262626" transform="translate(181.388293 391.95985) rotate(-45) scale(0.11 -0.11)">
       <defs>
        <path id="DejaVuSans-4c" d="M 603 3500 
L 1178 3500 
L 1178 0 
L 603 0 
L 603 3500 
z
M 603 4863 
L 1178 4863 
L 1178 4134 
L 603 4134 
L 603 4863 
z
" transform="scale(0.015625)"/>
       </defs>
       <use xlink:href="#DejaVuSans-47"/>
       <use xlink:href="#DejaVuSans-4c" transform="translate(63.484375 0)"/>
       <use xlink:href="#DejaVuSans-56" transform="translate(91.265625 0)"/>
       <use xlink:href="#DejaVuSans-57" transform="translate(143.359375 0)"/>
       <use xlink:href="#DejaVuSans-4c" transform="translate(182.5625 0)"/>
       <use xlink:href="#DejaVuSans-51" transform="translate(210.34375 0)"/>
       <use xlink:href="#DejaVuSans-46" transform="translate(273.71875 0)"/>
       <use xlink:href="#DejaVuSans-57" transform="translate(328.703125 0)"/>
       <use xlink:href="#DejaVuSans-42" transform="translate(367.90625 0)"/>
       <use xlink:href="#DejaVuSans-46" transform="translate(417.90625 0)"/>
       <use xlink:href="#DejaVuSans-52" transform="translate(472.890625 0)"/>
       <use xlink:href="#DejaVuSans-58" transform="translate(534.078125 0)"/>
       <use xlink:href="#DejaVuSans-51" transform="translate(597.453125 0)"/>
       <use xlink:href="#DejaVuSans-57" transform="translate(660.828125 0)"/>
      </g>
     </g>
    </g>
    <g id="xtick_6">
     <g id="line2d_6">
      <path d="M 273.940297 322.1 
L 273.940297 44.9 
" clip-path="url(#p694753785d)" style="fill: none; stroke: #cccccc; stroke-linecap: round"/>
     </g>
     <g id="text_6">
      <!-- filter_100k -->
      <g style="fill: #262626" transform="translate(230.739222 378.842688) rotate(-45) scale(0.11 -0.11)">
       <defs>
        <path id="DejaVuSans-13af" d="M 3431 3500 
L 3431 0 
L 2853 0 
L 2853 3053 
L 1275 3053 
L 1275 0 
L 697 0 
L 697 3053 
L 147 3053 
L 147 3500 
L 697 3500 
L 697 3744 
Q 697 4316 967 4589 
Q 1238 4863 1797 4863 
L 2375 4863 
L 2375 4384 
L 1825 4384 
Q 1516 4384 1395 4259 
Q 1275 4134 1275 3809 
L 1275 3500 
L 3431 3500 
z
M 2853 4856 
L 3431 4856 
L 3431 4128 
L 2853 4128 
L 2853 4856 
z
" transform="scale(0.015625)"/>
        <path id="DejaVuSans-4f" d="M 603 4863 
L 1178 4863 
L 1178 0 
L 603 0 
L 603 4863 
z
" transform="scale(0.015625)"/>
       </defs>
       <use xlink:href="#DejaVuSans-13af"/>
       <use xlink:href="#DejaVuSans-4f" transform="translate(62.984375 0)"/>
       <use xlink:href="#DejaVuSans-57" transform="translate(90.765625 0)"/>
       <use xlink:href="#DejaVuSans-48" transform="translate(129.96875 0)"/>
       <use xlink:href="#DejaVuSans-55" transform="translate(191.5 0)"/>
       <use xlink:href="#DejaVuSans-42" transform="translate(232.609375 0)"/>
       <use xlink:href="#DejaVuSans-14" transform="translate(282.609375 0)"/>
       <use xlink:href="#DejaVuSans-13" transform="translate(346.234375 0)"/>
       <use xlink:href="#DejaVuSans-13" transform="translate(409.859375 0)"/>
       <use xlink:href="#DejaVuSans-4e" transform="translate(473.484375 0)"/>
      </g>
     </g>
    </g>
    <g id="xtick_7">
     <g id="line2d_7">
      <path d="M 310.174064 322.1 
L 310.174064 44.9 
" clip-path="url(#p694753785d)" style="fill: none; stroke: #cccccc; stroke-linecap: round"/>
     </g>
     <g id="text_7">
      <!-- join_hash_100k -->
      <g style="fill: #262626" transform="translate(248.488885 397.326791) rotate(-45) scale(0.11 -0.11)">
       <defs>
        <path id="DejaVuSans-4d" d="M 603 3500 
L 1178 3500 
L 1178 -63 
Q 1178 -731 923 -1031 
Q 669 -1331 103 -1331 
L -116 -1331 
L -116 -844 
L 38 -844 
Q 366 -844 484 -692 
Q 603 -541 603 -63 
L 603 3500 
z
M 603 4863 
L 1178 4863 
L 1178 4134 
L 603 4134 
L 603 4863 
z
" transform="scale(0.015625)"/>
       </defs>
       <use xlink:href="#DejaVuSans-4d"/>
       <use xlink:href="#DejaVuSans-52" transform="translate(27.78125 0)"/>
       <use xlink:href="#DejaVuSans-4c" transform="translate(88.96875 0)"/>
       <use xlink:href="#DejaVuSans-51" transform="translate(116.75 0)"/>
       <use xlink:href="#DejaVuSans-42" transform="translate(180.125 0)"/>
       <use xlink:href="#DejaVuSans-4b" transform="translate(230.125 0)"/>
       <use xlink:href="#DejaVuSans-44" transform="translate(293.5 0)"/>
       <use xlink:href="#DejaVuSans-56" transform="translate(354.78125 0)"/>
       <use xlink:href="#DejaVuSans-4b" transform="translate(406.875 0)"/>
       <use xlink:href="#DejaVuSans-42" transform="translate(470.25 0)"/>
       <use xlink:href="#DejaVuSans-14" transform="translate(520.25 0)"/>
       <use xlink:href="#DejaVuSans-13" transform="translate(583.875 0)"/>
       <use xlink:href="#DejaVuSans-13" transform="translate(647.5 0)"/>
       <use xlink:href="#DejaVuSans-4e" transform="translate(711.125 0)"/>
      </g>
     </g>
    </g>
    <g id="xtick_8">
     <g id="line2d_8">
      <path d="M 346.40783 322.1 
L 346.40783 44.9 
" clip-path="url(#p694753785d)" style="fill: none; stroke: #cccccc; stroke-linecap: round"/>
     </g>
     <g id="text_8">
      <!-- multi_agg -->
      <g style="fill: #262626" transform="translate(306.130862 375.91858) rotate(-45) scale(0.11 -0.11)">
       <use xlink:href="#DejaVuSans-50"/>
       <use xlink:href="#DejaVuSans-58" transform="translate(97.40625 0)"/>
       <use xlink:href="#DejaVuSans-4f" transform="translate(160.78125 0)"/>
       <use xlink:href="#DejaVuSans-57" transform="translate(188.5625 0)"/>
       <use xlink:href="#DejaVuSans-4c" transform="translate(227.765625 0)"/>
       <use xlink:href="#DejaVuSans-42" transform="translate(255.546875 0)"/>
       <use xlink:href="#DejaVuSans-44" transform="translate(305.546875 0)"/>
       <use xlink:href="#DejaVuSans-4a" transform="translate(366.828125 0)"/>
       <use xlink:href="#DejaVuSans-4a" transform="translate(430.3125 0)"/>
      </g>
     </g>
    </g>
    <g id="xtick_9">
     <g id="line2d_9">
      <path d="M 382.641596 322.1 
L 382.641596 44.9 
" clip-path="url(#p694753785d)" style="fill: none; stroke: #cccccc; stroke-linecap: round"/>
     </g>
     <g id="text_9">
      <!-- order_by_100k -->
      <g style="fill: #262626" transform="translate(323.36036 394.922849) rotate(-45) scale(0.11 -0.11)">
       <use xlink:href="#DejaVuSans-52"/>
       <use xlink:href="#DejaVuSans-55" transform="translate(61.1875 0)"/>
       <use xlink:href="#DejaVuSans-47" transform="translate(100.546875 0)"/>
       <use xlink:href="#DejaVuSans-48" transform="translate(164.03125 0)"/>
       <use xlink:href="#DejaVuSans-55" transform="translate(225.5625 0)"/>
       <use xlink:href="#DejaVuSans-42" transform="translate(266.671875 0)"/>
       <use xlink:href="#DejaVuSans-45" transform="translate(316.671875 0)"/>
       <use xlink:href="#DejaVuSans-5c" transform="translate(380.15625 0)"/>
       <use xlink:href="#DejaVuSans-42" transform="translate(439.34375 0)"/>
       <use xlink:href="#DejaVuSans-14" transform="translate(489.34375 0)"/>
       <use xlink:href="#DejaVuSans-13" transform="translate(552.96875 0)"/>
       <use xlink:href="#DejaVuSans-13" transform="translate(616.59375 0)"/>
       <use xlink:href="#DejaVuSans-4e" transform="translate(680.21875 0)"/>
      </g>
     </g>
    </g>
    <g id="xtick_10">
     <g id="line2d_10">
      <path d="M 418.875362 322.1 
L 418.875362 44.9 
" clip-path="url(#p694753785d)" style="fill: none; stroke: #cccccc; stroke-linecap: round"/>
     </g>
     <g id="text_10">
      <!-- scan_100k -->
      <g style="fill: #262626" transform="translate(375.742346 378.774629) rotate(-45) scale(0.11 -0.11)">
       <use xlink:href="#DejaVuSans-56"/>
       <use xlink:href="#DejaVuSans-46" transform="translate(52.09375 0)"/>
       <use xlink:href="#DejaVuSans-44" transform="translate(107.078125 0)"/>
       <use xlink:href="#DejaVuSans-51" transform="translate(168.359375 0)"/>
       <use xlink:href="#DejaVuSans-42" transform="translate(231.734375 0)"/>
       <use xlink:href="#DejaVuSans-14" transform="translate(281.734375 0)"/>
       <use xlink:href="#DejaVuSans-13" transform="translate(345.359375 0)"/>
       <use xlink:href="#DejaVuSans-13" transform="translate(408.984375 0)"/>
       <use xlink:href="#DejaVuSans-4e" transform="translate(472.609375 0)"/>
      </g>
     </g>
    </g>
    <g id="xtick_11">
     <g id="line2d_11">
      <path d="M 455.109129 322.1 
L 455.109129 44.9 
" clip-path="url(#p694753785d)" style="fill: none; stroke: #cccccc; stroke-linecap: round"/>
     </g>
     <g id="text_11">
      <!-- select_literal -->
      <g style="fill: #262626" transform="translate(403.958516 386.792225) rotate(-45) scale(0.11 -0.11)">
       <use xlink:href="#DejaVuSans-56"/>
       <use xlink:href="#DejaVuSans-48" transform="translate(52.09375 0)"/>
       <use xlink:href="#DejaVuSans-4f" transform="translate(113.625 0)"/>
       <use xlink:href="#DejaVuSans-48" transform="translate(141.40625 0)"/>
       <use xlink:href="#DejaVuSans-46" transform="translate(202.9375 0)"/>
       <use xlink:href="#DejaVuSans-57" transform="translate(257.921875 0)"/>
       <use xlink:href="#DejaVuSans-42" transform="translate(297.125 0)"/>
       <use xlink:href="#DejaVuSans-4f" transform="translate(347.125 0)"/>
       <use xlink:href="#DejaVuSans-4c" transform="translate(374.90625 0)"/>
       <use xlink:href="#DejaVuSans-57" transform="translate(402.6875 0)"/>
       <use xlink:href="#DejaVuSans-48" transform="translate(441.890625 0)"/>
       <use xlink:href="#DejaVuSans-55" transform="translate(503.421875 0)"/>
       <use xlink:href="#DejaVuSans-44" transform="translate(544.53125 0)"/>
       <use xlink:href="#DejaVuSans-4f" transform="translate(605.8125 0)"/>
      </g>
     </g>
    </g>
    <g id="xtick_12">
     <g id="line2d_12">
      <path d="M 491.342895 322.1 
L 491.342895 44.9 
" clip-path="url(#p694753785d)" style="fill: none; stroke: #cccccc; stroke-linecap: round"/>
     </g>
     <g id="text_12">
      <!-- string_funcs -->
      <g style="fill: #262626" transform="translate(442.332495 384.652012) rotate(-45) scale(0.11 -0.11)">
       <use xlink:href="#DejaVuSans-56"/>
       <use xlink:href="#DejaVuSans-57" transform="translate(52.09375 0)"/>
       <use xlink:href="#DejaVuSans-55" transform="translate(91.296875 0)"/>
       <use xlink:href="#DejaVuSans-4c" transform="translate(132.40625 0)"/>
       <use xlink:href="#DejaVuSans-51" transform="translate(160.1875 0)"/>
       <use xlink:href="#DejaVuSans-4a" transform="translate(223.5625 0)"/>
       <use xlink:href="#DejaVuSans-42" transform="translate(287.046875 0)"/>
       <use xlink:href="#DejaVuSans-49" transform="translate(337.046875 0)"/>
       <use xlink:href="#DejaVuSans-58" transform="translate(372.25 0)"/>
       <use xlink:href="#DejaVuSans-51" transform="translate(435.625 0)"/>
       <use xlink:href="#DejaVuSans-46" transform="translate(499 0)"/>
       <use xlink:href="#DejaVuSans-56" transform="translate(553.984375 0)"/>
      </g>
     </g>
    </g>
    <g id="xtick_13">
     <g id="line2d_13">
      <path d="M 527.576661 322.1 
L 527.576661 44.9 
" clip-path="url(#p694753785d)" style="fill: none; stroke: #cccccc; stroke-linecap: round"/>
     </g>
     <g id="text_13">
      <!-- subquery_in -->
      <g style="fill: #262626" transform="translate(478.354792 384.863481) rotate(-45) scale(0.11 -0.11)">
       <defs>
        <path id="DejaVuSans-54" d="M 947 1747 
Q 947 1113 1208 752 
Q 1469 391 1925 391 
Q 2381 391 2643 752 
Q 2906 1113 2906 1747 
Q 2906 2381 2643 2742 
Q 2381 3103 1925 3103 
Q 1469 3103 1208 2742 
Q 947 2381 947 1747 
z
M 2906 525 
Q 2725 213 2448 61 
Q 2172 -91 1784 -91 
Q 1150 -91 751 415 
Q 353 922 353 1747 
Q 353 2572 751 3078 
Q 1150 3584 1784 3584 
Q 2172 3584 2448 3432 
Q 2725 3281 2906 2969 
L 2906 3500 
L 3481 3500 
L 3481 -1331 
L 2906 -1331 
L 2906 525 
z
" transform="scale(0.015625)"/>
       </defs>
       <use xlink:href="#DejaVuSans-56"/>
       <use xlink:href="#DejaVuSans-58" transform="translate(52.09375 0)"/>
       <use xlink:href="#DejaVuSans-45" transform="translate(115.46875 0)"/>
       <use xlink:href="#DejaVuSans-54" transform="translate(178.953125 0)"/>
       <use xlink:href="#DejaVuSans-58" transform="translate(242.4375 0)"/>
       <use xlink:href="#DejaVuSans-48" transform="translate(305.8125 0)"/>
       <use xlink:href="#DejaVuSans-55" transform="translate(367.34375 0)"/>
       <use xlink:href="#DejaVuSans-5c" transform="translate(408.453125 0)"/>
       <use xlink:href="#DejaVuSans-42" transform="translate(467.640625 0)"/>
       <use xlink:href="#DejaVuSans-4c" transform="translate(517.640625 0)"/>
       <use xlink:href="#DejaVuSans-51" transform="translate(545.421875 0)"/>
      </g>
     </g>
    </g>
    <g id="xtick_14">
     <g id="line2d_14">
      <path d="M 563.810427 322.1 
L 563.810427 44.9 
" clip-path="url(#p694753785d)" style="fill: none; stroke: #cccccc; stroke-linecap: round"/>
     </g>
     <g id="text_14">
      <!-- unnest_array -->
      <g style="fill: #262626" transform="translate(510.98143 388.470002) rotate(-45) scale(0.11 -0.11)">
       <use xlink:href="#DejaVuSans-58"/>
       <use xlink:href="#DejaVuSans-51" transform="translate(63.375 0)"/>
       <use xlink:href="#DejaVuSans-51" transform="translate(126.75 0)"/>
       <use xlink:href="#DejaVuSans-48" transform="translate(190.125 0)"/>
       <use xlink:href="#DejaVuSans-56" transform="translate(251.65625 0)"/>
       <use xlink:href="#DejaVuSans-57" transform="translate(303.75 0)"/>
       <use xlink:href="#DejaVuSans-42" transform="translate(342.953125 0)"/>
       <use xlink:href="#DejaVuSans-44" transform="translate(392.953125 0)"/>
       <use xlink:href="#DejaVuSans-55" transform="translate(454.234375 0)"/>
       <use xlink:href="#DejaVuSans-55" transform="translate(493.59375 0)"/>
       <use xlink:href="#DejaVuSans-44" transform="translate(534.703125 0)"/>
       <use xlink:href="#DejaVuSans-5c" transform="translate(595.984375 0)"/>
      </g>
     </g>
    </g>
    <g id="xtick_15">
     <g id="line2d_15">
      <path d="M 600.044194 322.1 
L 600.044194 44.9 
" clip-path="url(#p694753785d)" style="fill: none; stroke: #cccccc; stroke-linecap: round"/>
     </g>
     <g id="text_15">
      <!-- window_row_number -->
      <g style="fill: #262626" transform="translate(516.384457 419.301349) rotate(-45) scale(0.11 -0.11)">
       <use xlink:href="#DejaVuSans-5a"/>
       <use xlink:href="#DejaVuSans-4c" transform="translate(81.78125 0)"/>
       <use xlink:href="#DejaVuSans-51" transform="translate(109.5625 0)"/>
       <use xlink:href="#DejaVuSans-47" transform="translate(172.9375 0)"/>
       <use xlink:href="#DejaVuSans-52" transform="translate(236.421875 0)"/>
       <use xlink:href="#DejaVuSans-5a" transform="translate(297.609375 0)"/>
       <use xlink:href="#DejaVuSans-42" transform="translate(379.390625 0)"/>
       <use xlink:href="#DejaVuSans-55" transform="translate(429.390625 0)"/>
       <use xlink:href="#DejaVuSans-52" transform="translate(468.296875 0)"/>
       <use xlink:href="#DejaVuSans-5a" transform="translate(529.484375 0)"/>
       <use xlink:href="#DejaVuSans-42" transform="translate(611.265625 0)"/>
       <use xlink:href="#DejaVuSans-51" transform="translate(661.265625 0)"/>
       <use xlink:href="#DejaVuSans-58" transform="translate(724.640625 0)"/>
       <use xlink:href="#DejaVuSans-50" transform="translate(788.015625 0)"/>
       <use xlink:href="#DejaVuSans-45" transform="translate(885.421875 0)"/>
       <use xlink:href="#DejaVuSans-48" transform="translate(948.90625 0)"/>
       <use xlink:href="#DejaVuSans-55" transform="translate(1010.4375 0)"/>
      </g>
     </g>
    </g>
   </g>
   <g id="matplotlib.axis_2">
    <g id="ytick_1">
     <g id="line2d_16">
      <path d="M 67.40783 309.525935 
L 625.40783 309.525935 
" clip-path="url(#p694753785d)" style="fill: none; stroke: #cccccc; stroke-linecap: round"/>
     </g>
     <g id="text_16">
      <!-- 0 -->
      <g style="fill: #262626" transform="translate(50.90908 313.704646) scale(0.11 -0.11)">
       <use xlink:href="#DejaVuSans-13"/>
      </g>
     </g>
    </g>
    <g id="ytick_2">
     <g id="line2d_17">
      <path d="M 67.40783 264.976949 
L 625.40783 264.976949 
" clip-path="url(#p694753785d)" style="fill: none; stroke: #cccccc; stroke-linecap: round"/>
     </g>
     <g id="text_17">
      <!-- 50 -->
      <g style="fill: #262626" transform="translate(43.91033 269.15566) scale(0.11 -0.11)">
       <defs>
        <path id="DejaVuSans-18" d="M 691 4666 
L 3169 4666 
L 3169 4134 
L 1269 4134 
L 1269 2991 
Q 1406 3038 1543 3061 
Q 1681 3084 1819 3084 
Q 2600 3084 3056 2656 
Q 3513 2228 3513 1497 
Q 3513 744 3044 326 
Q 2575 -91 1722 -91 
Q 1428 -91 1123 -41 
Q 819 9 494 109 
L 494 744 
Q 775 591 1075 516 
Q 1375 441 1709 441 
Q 2250 441 2565 725 
Q 2881 1009 2881 1497 
Q 2881 1984 2565 2268 
Q 2250 2553 1709 2553 
Q 1456 2553 1204 2497 
Q 953 2441 691 2322 
L 691 4666 
z
" transform="scale(0.015625)"/>
       </defs>
       <use xlink:href="#DejaVuSans-18"/>
       <use xlink:href="#DejaVuSans-13" transform="translate(63.625 0)"/>
      </g>
     </g>
    </g>
    <g id="ytick_3">
     <g id="line2d_18">
      <path d="M 67.40783 220.427964 
L 625.40783 220.427964 
" clip-path="url(#p694753785d)" style="fill: none; stroke: #cccccc; stroke-linecap: round"/>
     </g>
     <g id="text_18">
      <!-- 100 -->
      <g style="fill: #262626" transform="translate(36.91158 224.606675) scale(0.11 -0.11)">
       <use xlink:href="#DejaVuSans-14"/>
       <use xlink:href="#DejaVuSans-13" transform="translate(63.625 0)"/>
       <use xlink:href="#DejaVuSans-13" transform="translate(127.25 0)"/>
      </g>
     </g>
    </g>
    <g id="ytick_4">
     <g id="line2d_19">
      <path d="M 67.40783 175.878978 
L 625.40783 175.878978 
" clip-path="url(#p694753785d)" style="fill: none; stroke: #cccccc; stroke-linecap: round"/>
     </g>
     <g id="text_19">
      <!-- 150 -->
      <g style="fill: #262626" transform="translate(36.91158 180.057689) scale(0.11 -0.11)">
       <use xlink:href="#DejaVuSans-14"/>
       <use xlink:href="#DejaVuSans-18" transform="translate(63.625 0)"/>
       <use xlink:href="#DejaVuSans-13" transform="translate(127.25 0)"/>
      </g>
     </g>
    </g>
    <g id="ytick_5">
     <g id="line2d_20">
      <path d="M 67.40783 131.329992 
L 625.40783 131.329992 
" clip-path="url(#p694753785d)" style="fill: none; stroke: #cccccc; stroke-linecap: round"/>
     </g>
     <g id="text_20">
      <!-- 200 -->
      <g style="fill: #262626" transform="translate(36.91158 135.508703) scale(0.11 -0.11)">
       <defs>
        <path id="DejaVuSans-15" d="M 1228 531 
L 3431 531 
L 3431 0 
L 469 0 
L 469 531 
Q 828 903 1448 1529 
Q 2069 2156 2228 2338 
Q 2531 2678 2651 2914 
Q 2772 3150 2772 3378 
Q 2772 3750 2511 3984 
Q 2250 4219 1831 4219 
Q 1534 4219 1204 4116 
Q 875 4013 500 3803 
L 500 4441 
Q 881 4594 1212 4672 
Q 1544 4750 1819 4750 
Q 2544 4750 2975 4387 
Q 3406 4025 3406 3419 
Q 3406 3131 3298 2873 
Q 3191 2616 2906 2266 
Q 2828 2175 2409 1742 
Q 1991 1309 1228 531 
z
" transform="scale(0.015625)"/>
       </defs>
       <use xlink:href="#DejaVuSans-15"/>
       <use xlink:href="#DejaVuSans-13" transform="translate(63.625 0)"/>
       <use xlink:href="#DejaVuSans-13" transform="translate(127.25 0)"/>
      </g>
     </g>
    </g>
    <g id="ytick_6">
     <g id="line2d_21">
      <path d="M 67.40783 86.781007 
L 625.40783 86.781007 
" clip-path="url(#p694753785d)" style="fill: none; stroke: #cccccc; stroke-linecap: round"/>
     </g>
     <g id="text_21">
      <!-- 250 -->
      <g style="fill: #262626" transform="translate(36.91158 90.959718) scale(0.11 -0.11)">
       <use xlink:href="#DejaVuSans-15"/>
       <use xlink:href="#DejaVuSans-18" transform="translate(63.625 0)"/>
       <use xlink:href="#DejaVuSans-13" transform="translate(127.25 0)"/>
      </g>
     </g>
    </g>
    <g id="text_22">
     <!-- ratio vs BigQuery execution p50 -->
     <g style="fill: #262626" transform="translate(30.028767 280.149687) rotate(-90) scale(0.12 -0.12)">
      <defs>
       <path id="DejaVuSans-3" transform="scale(0.015625)"/>
       <path id="DejaVuSans-59" d="M 191 3500 
L 800 3500 
L 1894 563 
L 2988 3500 
L 3597 3500 
L 2284 0 
L 1503 0 
L 191 3500 
z
" transform="scale(0.015625)"/>
       <path id="DejaVuSans-25" d="M 1259 2228 
L 1259 519 
L 2272 519 
Q 2781 519 3026 730 
Q 3272 941 3272 1375 
Q 3272 1813 3026 2020 
Q 2781 2228 2272 2228 
L 1259 2228 
z
M 1259 4147 
L 1259 2741 
L 2194 2741 
Q 2656 2741 2882 2914 
Q 3109 3088 3109 3444 
Q 3109 3797 2882 3972 
Q 2656 4147 2194 4147 
L 1259 4147 
z
M 628 4666 
L 2241 4666 
Q 2963 4666 3353 4366 
Q 3744 4066 3744 3513 
Q 3744 3084 3544 2831 
Q 3344 2578 2956 2516 
Q 3422 2416 3680 2098 
Q 3938 1781 3938 1306 
Q 3938 681 3513 340 
Q 3088 0 2303 0 
L 628 0 
L 628 4666 
z
" transform="scale(0.015625)"/>
       <path id="DejaVuSans-34" d="M 2522 4238 
Q 1834 4238 1429 3725 
Q 1025 3213 1025 2328 
Q 1025 1447 1429 934 
Q 1834 422 2522 422 
Q 3209 422 3611 934 
Q 4013 1447 4013 2328 
Q 4013 3213 3611 3725 
Q 3209 4238 2522 4238 
z
M 3406 84 
L 4238 -825 
L 3475 -825 
L 2784 -78 
Q 2681 -84 2626 -87 
Q 2572 -91 2522 -91 
Q 1538 -91 948 567 
Q 359 1225 359 2328 
Q 359 3434 948 4092 
Q 1538 4750 2522 4750 
Q 3503 4750 4090 4092 
Q 4678 3434 4678 2328 
Q 4678 1516 4351 937 
Q 4025 359 3406 84 
z
" transform="scale(0.015625)"/>
       <path id="DejaVuSans-5b" d="M 3513 3500 
L 2247 1797 
L 3578 0 
L 2900 0 
L 1881 1375 
L 863 0 
L 184 0 
L 1544 1831 
L 300 3500 
L 978 3500 
L 1906 2253 
L 2834 3500 
L 3513 3500 
z
" transform="scale(0.015625)"/>
      </defs>
      <use xlink:href="#DejaVuSans-55"/>
      <use xlink:href="#DejaVuSans-44" transform="translate(41.109375 0)"/>
      <use xlink:href="#DejaVuSans-57" transform="translate(102.390625 0)"/>
      <use xlink:href="#DejaVuSans-4c" transform="translate(141.59375 0)"/>
      <use xlink:href="#DejaVuSans-52" transform="translate(169.375 0)"/>
      <use xlink:href="#DejaVuSans-3" transform="translate(230.5625 0)"/>
      <use xlink:href="#DejaVuSans-59" transform="translate(262.34375 0)"/>
      <use xlink:href="#DejaVuSans-56" transform="translate(321.53125 0)"/>
      <use xlink:href="#DejaVuSans-3" transform="translate(373.625 0)"/>
      <use xlink:href="#DejaVuSans-25" transform="translate(405.40625 0)"/>
      <use xlink:href="#DejaVuSans-4c" transform="translate(474.015625 0)"/>
      <use xlink:href="#DejaVuSans-4a" transform="translate(501.796875 0)"/>
      <use xlink:href="#DejaVuSans-34" transform="translate(565.28125 0)"/>
      <use xlink:href="#DejaVuSans-58" transform="translate(644 0)"/>
      <use xlink:href="#DejaVuSans-48" transform="translate(707.375 0)"/>
      <use xlink:href="#DejaVuSans-55" transform="translate(768.90625 0)"/>
      <use xlink:href="#DejaVuSans-5c" transform="translate(810.015625 0)"/>
      <use xlink:href="#DejaVuSans-3" transform="translate(869.203125 0)"/>
      <use xlink:href="#DejaVuSans-48" transform="translate(900.984375 0)"/>
      <use xlink:href="#DejaVuSans-5b" transform="translate(960.765625 0)"/>
      <use xlink:href="#DejaVuSans-48" transform="translate(1016.875 0)"/>
      <use xlink:href="#DejaVuSans-46" transform="translate(1078.40625 0)"/>
      <use xlink:href="#DejaVuSans-58" transform="translate(1133.390625 0)"/>
      <use xlink:href="#DejaVuSans-57" transform="translate(1196.765625 0)"/>
      <use xlink:href="#DejaVuSans-4c" transform="translate(1235.96875 0)"/>
      <use xlink:href="#DejaVuSans-52" transform="translate(1263.75 0)"/>
      <use xlink:href="#DejaVuSans-51" transform="translate(1324.9375 0)"/>
      <use xlink:href="#DejaVuSans-3" transform="translate(1388.3125 0)"/>
      <use xlink:href="#DejaVuSans-53" transform="translate(1420.09375 0)"/>
      <use xlink:href="#DejaVuSans-18" transform="translate(1483.578125 0)"/>
      <use xlink:href="#DejaVuSans-13" transform="translate(1547.203125 0)"/>
     </g>
    </g>
   </g>
   <g id="line2d_22">
    <path d="M 92.771466 309.355852 
L 129.005232 309.184868 
L 165.238999 309.357601 
L 201.472765 309.223393 
L 237.706531 309.385823 
L 273.940297 309.402392 
L 310.174064 309.441528 
L 346.40783 309.404767 
L 382.641596 309.290478 
L 418.875362 309.449408 
L 455.109129 309.5 
L 491.342895 309.446297 
L 527.576661 309.452829 
L 563.810427 309.227388 
L 600.044194 309.294899 
" clip-path="url(#p694753785d)" style="fill: none; stroke: #4c72b0; stroke-width: 1.5; stroke-linecap: round"/>
    <defs>
     <path id="m15e9858d32" d="M 0 3 
C 0.795609 3 1.55874 2.683901 2.12132 2.12132 
C 2.683901 1.55874 3 0.795609 3 0 
C 3 -0.795609 2.683901 -1.55874 2.12132 -2.12132 
C 1.55874 -2.683901 0.795609 -3 0 -3 
C -0.795609 -3 -1.55874 -2.683901 -2.12132 -2.12132 
C -2.683901 -1.55874 -3 -0.795609 -3 0 
C -3 0.795609 -2.683901 1.55874 -2.12132 2.12132 
C -1.55874 2.683901 -0.795609 3 0 3 
z
" style="stroke: #4c72b0"/>
    </defs>
    <g clip-path="url(#p694753785d)">
     <use xlink:href="#m15e9858d32" x="92.771466" y="309.355852" style="fill: #4c72b0; stroke: #4c72b0"/>
     <use xlink:href="#m15e9858d32" x="129.005232" y="309.184868" style="fill: #4c72b0; stroke: #4c72b0"/>
     <use xlink:href="#m15e9858d32" x="165.238999" y="309.357601" style="fill: #4c72b0; stroke: #4c72b0"/>
     <use xlink:href="#m15e9858d32" x="201.472765" y="309.223393" style="fill: #4c72b0; stroke: #4c72b0"/>
     <use xlink:href="#m15e9858d32" x="237.706531" y="309.385823" style="fill: #4c72b0; stroke: #4c72b0"/>
     <use xlink:href="#m15e9858d32" x="273.940297" y="309.402392" style="fill: #4c72b0; stroke: #4c72b0"/>
     <use xlink:href="#m15e9858d32" x="310.174064" y="309.441528" style="fill: #4c72b0; stroke: #4c72b0"/>
     <use xlink:href="#m15e9858d32" x="346.40783" y="309.404767" style="fill: #4c72b0; stroke: #4c72b0"/>
     <use xlink:href="#m15e9858d32" x="382.641596" y="309.290478" style="fill: #4c72b0; stroke: #4c72b0"/>
     <use xlink:href="#m15e9858d32" x="418.875362" y="309.449408" style="fill: #4c72b0; stroke: #4c72b0"/>
     <use xlink:href="#m15e9858d32" x="455.109129" y="309.5" style="fill: #4c72b0; stroke: #4c72b0"/>
     <use xlink:href="#m15e9858d32" x="491.342895" y="309.446297" style="fill: #4c72b0; stroke: #4c72b0"/>
     <use xlink:href="#m15e9858d32" x="527.576661" y="309.452829" style="fill: #4c72b0; stroke: #4c72b0"/>
     <use xlink:href="#m15e9858d32" x="563.810427" y="309.227388" style="fill: #4c72b0; stroke: #4c72b0"/>
     <use xlink:href="#m15e9858d32" x="600.044194" y="309.294899" style="fill: #4c72b0; stroke: #4c72b0"/>
    </g>
   </g>
   <g id="line2d_23">
    <path d="M 165.238999 304.185556 
L 201.472765 304.054773 
L 237.706531 305.254298 
L 273.940297 307.08785 
L 310.174064 57.5 
M 382.641596 307.411811 
M 455.109129 308.465779 
L 491.342895 307.796834 
L 527.576661 308.327085 
L 563.810427 307.312943 
L 600.044194 306.406917 
" clip-path="url(#p694753785d)" style="fill: none; stroke: #dd8452; stroke-width: 1.5; stroke-linecap: round"/>
    <defs>
     <path id="mb78c679333" d="M -3 3 
L 3 3 
L 3 -3 
L -3 -3 
z
" style="stroke: #dd8452; stroke-linejoin: miter"/>
    </defs>
    <g clip-path="url(#p694753785d)">
     <use xlink:href="#mb78c679333" x="165.238999" y="304.185556" style="fill: #dd8452; stroke: #dd8452; stroke-linejoin: miter"/>
     <use xlink:href="#mb78c679333" x="201.472765" y="304.054773" style="fill: #dd8452; stroke: #dd8452; stroke-linejoin: miter"/>
     <use xlink:href="#mb78c679333" x="237.706531" y="305.254298" style="fill: #dd8452; stroke: #dd8452; stroke-linejoin: miter"/>
     <use xlink:href="#mb78c679333" x="273.940297" y="307.08785" style="fill: #dd8452; stroke: #dd8452; stroke-linejoin: miter"/>
     <use xlink:href="#mb78c679333" x="310.174064" y="57.5" style="fill: #dd8452; stroke: #dd8452; stroke-linejoin: miter"/>
     <use xlink:href="#mb78c679333" x="382.641596" y="307.411811" style="fill: #dd8452; stroke: #dd8452; stroke-linejoin: miter"/>
     <use xlink:href="#mb78c679333" x="455.109129" y="308.465779" style="fill: #dd8452; stroke: #dd8452; stroke-linejoin: miter"/>
     <use xlink:href="#mb78c679333" x="491.342895" y="307.796834" style="fill: #dd8452; stroke: #dd8452; stroke-linejoin: miter"/>
     <use xlink:href="#mb78c679333" x="527.576661" y="308.327085" style="fill: #dd8452; stroke: #dd8452; stroke-linejoin: miter"/>
     <use xlink:href="#mb78c679333" x="563.810427" y="307.312943" style="fill: #dd8452; stroke: #dd8452; stroke-linejoin: miter"/>
     <use xlink:href="#mb78c679333" x="600.044194" y="306.406917" style="fill: #dd8452; stroke: #dd8452; stroke-linejoin: miter"/>
    </g>
   </g>
   <g id="line2d_24">
    <path d="M 67.40783 308.189465 
L 625.40783 308.189465 
" clip-path="url(#p694753785d)" style="fill: none; stroke-dasharray: 5.55,2.4; stroke-dashoffset: 0; stroke: #ff0000; stroke-width: 1.5"/>
   </g>
   <g id="patch_3">
    <path d="M 67.40783 322.1 
L 67.40783 44.9 
" style="fill: none; stroke: #cccccc; stroke-width: 1.25; stroke-linejoin: miter; stroke-linecap: square"/>
   </g>
   <g id="patch_4">
    <path d="M 625.40783 322.1 
L 625.40783 44.9 
" style="fill: none; stroke: #cccccc; stroke-width: 1.25; stroke-linejoin: miter; stroke-linecap: square"/>
   </g>
   <g id="patch_5">
    <path d="M 67.40783 322.1 
L 625.40783 322.1 
" style="fill: none; stroke: #cccccc; stroke-width: 1.25; stroke-linejoin: miter; stroke-linecap: square"/>
   </g>
   <g id="patch_6">
    <path d="M 67.40783 44.9 
L 625.40783 44.9 
" style="fill: none; stroke: #cccccc; stroke-width: 1.25; stroke-linejoin: miter; stroke-linecap: square"/>
   </g>
   <g id="text_23">
    <!-- Latency ratio vs BigQuery job duration -->
    <g style="fill: #262626" transform="translate(230.423142 38.9) scale(0.12 -0.12)">
     <defs>
      <path id="DejaVuSans-2f" d="M 628 4666 
L 1259 4666 
L 1259 531 
L 3531 531 
L 3531 0 
L 628 0 
L 628 4666 
z
" transform="scale(0.015625)"/>
     </defs>
     <use xlink:href="#DejaVuSans-2f"/>
     <use xlink:href="#DejaVuSans-44" transform="translate(55.71875 0)"/>
     <use xlink:href="#DejaVuSans-57" transform="translate(117 0)"/>
     <use xlink:href="#DejaVuSans-48" transform="translate(156.203125 0)"/>
     <use xlink:href="#DejaVuSans-51" transform="translate(217.734375 0)"/>
     <use xlink:href="#DejaVuSans-46" transform="translate(281.109375 0)"/>
     <use xlink:href="#DejaVuSans-5c" transform="translate(336.09375 0)"/>
     <use xlink:href="#DejaVuSans-3" transform="translate(395.28125 0)"/>
     <use xlink:href="#DejaVuSans-55" transform="translate(427.0625 0)"/>
     <use xlink:href="#DejaVuSans-44" transform="translate(468.171875 0)"/>
     <use xlink:href="#DejaVuSans-57" transform="translate(529.453125 0)"/>
     <use xlink:href="#DejaVuSans-4c" transform="translate(568.65625 0)"/>
     <use xlink:href="#DejaVuSans-52" transform="translate(596.4375 0)"/>
     <use xlink:href="#DejaVuSans-3" transform="translate(657.625 0)"/>
     <use xlink:href="#DejaVuSans-59" transform="translate(689.40625 0)"/>
     <use xlink:href="#DejaVuSans-56" transform="translate(748.59375 0)"/>
     <use xlink:href="#DejaVuSans-3" transform="translate(800.6875 0)"/>
     <use xlink:href="#DejaVuSans-25" transform="translate(832.46875 0)"/>
     <use xlink:href="#DejaVuSans-4c" transform="translate(901.078125 0)"/>
     <use xlink:href="#DejaVuSans-4a" transform="translate(928.859375 0)"/>
     <use xlink:href="#DejaVuSans-34" transform="translate(992.34375 0)"/>
     <use xlink:href="#DejaVuSans-58" transform="translate(1071.0625 0)"/>
     <use xlink:href="#DejaVuSans-48" transform="translate(1134.4375 0)"/>
     <use xlink:href="#DejaVuSans-55" transform="translate(1195.96875 0)"/>
     <use xlink:href="#DejaVuSans-5c" transform="translate(1237.078125 0)"/>
     <use xlink:href="#DejaVuSans-3" transform="translate(1296.265625 0)"/>
     <use xlink:href="#DejaVuSans-4d" transform="translate(1328.046875 0)"/>
     <use xlink:href="#DejaVuSans-52" transform="translate(1355.828125 0)"/>
     <use xlink:href="#DejaVuSans-45" transform="translate(1417.015625 0)"/>
     <use xlink:href="#DejaVuSans-3" transform="translate(1480.5 0)"/>
     <use xlink:href="#DejaVuSans-47" transform="translate(1512.28125 0)"/>
     <use xlink:href="#DejaVuSans-58" transform="translate(1575.765625 0)"/>
     <use xlink:href="#DejaVuSans-55" transform="translate(1639.140625 0)"/>
     <use xlink:href="#DejaVuSans-44" transform="translate(1680.25 0)"/>
     <use xlink:href="#DejaVuSans-57" transform="translate(1741.53125 0)"/>
     <use xlink:href="#DejaVuSans-4c" transform="translate(1780.734375 0)"/>
     <use xlink:href="#DejaVuSans-52" transform="translate(1808.515625 0)"/>
     <use xlink:href="#DejaVuSans-51" transform="translate(1869.703125 0)"/>
    </g>
   </g>
  </g>
  <g id="legend_1">
   <g id="patch_7">
    <path d="M 509.00033 58.302578 
L 691.40783 58.302578 
Q 693.60783 58.302578 693.60783 56.102578 
L 693.60783 7.7 
Q 693.60783 5.5 691.40783 5.5 
L 509.00033 5.5 
Q 506.80033 5.5 506.80033 7.7 
L 506.80033 56.102578 
Q 506.80033 58.302578 509.00033 58.302578 
z
" style="fill: #ffffff; opacity: 0.8; stroke: #cccccc; stroke-linejoin: miter"/>
   </g>
   <g id="line2d_25">
    <path d="M 511.20033 14.408281 
L 522.20033 14.408281 
L 533.20033 14.408281 
" style="fill: none; stroke: #4c72b0; stroke-width: 1.5; stroke-linecap: round"/>
    <g>
     <use xlink:href="#m15e9858d32" x="522.20033" y="14.408281" style="fill: #4c72b0; stroke: #4c72b0"/>
    </g>
   </g>
   <g id="text_24">
    <!-- vantaboard / BQ (server) -->
    <g style="fill: #262626" transform="translate(542.00033 18.258281) scale(0.11 -0.11)">
     <defs>
      <path id="DejaVuSans-12" d="M 1625 4666 
L 2156 4666 
L 531 -594 
L 0 -594 
L 1625 4666 
z
" transform="scale(0.015625)"/>
      <path id="DejaVuSans-b" d="M 1984 4856 
Q 1566 4138 1362 3434 
Q 1159 2731 1159 2009 
Q 1159 1288 1364 580 
Q 1569 -128 1984 -844 
L 1484 -844 
Q 1016 -109 783 600 
Q 550 1309 550 2009 
Q 550 2706 781 3412 
Q 1013 4119 1484 4856 
L 1984 4856 
z
" transform="scale(0.015625)"/>
      <path id="DejaVuSans-c" d="M 513 4856 
L 1013 4856 
Q 1481 4119 1714 3412 
Q 1947 2706 1947 2009 
Q 1947 1309 1714 600 
Q 1481 -109 1013 -844 
L 513 -844 
Q 928 -128 1133 580 
Q 1338 1288 1338 2009 
Q 1338 2731 1133 3434 
Q 928 4138 513 4856 
z
" transform="scale(0.015625)"/>
     </defs>
     <use xlink:href="#DejaVuSans-59"/>
     <use xlink:href="#DejaVuSans-44" transform="translate(59.1875 0)"/>
     <use xlink:href="#DejaVuSans-51" transform="translate(120.46875 0)"/>
     <use xlink:href="#DejaVuSans-57" transform="translate(183.84375 0)"/>
     <use xlink:href="#DejaVuSans-44" transform="translate(223.046875 0)"/>
     <use xlink:href="#DejaVuSans-45" transform="translate(284.328125 0)"/>
     <use xlink:href="#DejaVuSans-52" transform="translate(347.8125 0)"/>
     <use xlink:href="#DejaVuSans-44" transform="translate(409 0)"/>
     <use xlink:href="#DejaVuSans-55" transform="translate(470.28125 0)"/>
     <use xlink:href="#DejaVuSans-47" transform="translate(509.640625 0)"/>
     <use xlink:href="#DejaVuSans-3" transform="translate(573.125 0)"/>
     <use xlink:href="#DejaVuSans-12" transform="translate(604.90625 0)"/>
     <use xlink:href="#DejaVuSans-3" transform="translate(638.59375 0)"/>
     <use xlink:href="#DejaVuSans-25" transform="translate(670.375 0)"/>
     <use xlink:href="#DejaVuSans-34" transform="translate(738.984375 0)"/>
     <use xlink:href="#DejaVuSans-3" transform="translate(817.703125 0)"/>
     <use xlink:href="#DejaVuSans-b" transform="translate(849.484375 0)"/>
     <use xlink:href="#DejaVuSans-56" transform="translate(888.5 0)"/>
     <use xlink:href="#DejaVuSans-48" transform="translate(940.59375 0)"/>
     <use xlink:href="#DejaVuSans-55" transform="translate(1002.125 0)"/>
     <use xlink:href="#DejaVuSans-59" transform="translate(1043.234375 0)"/>
     <use xlink:href="#DejaVuSans-48" transform="translate(1102.421875 0)"/>
     <use xlink:href="#DejaVuSans-55" transform="translate(1163.953125 0)"/>
     <use xlink:href="#DejaVuSans-c" transform="translate(1205.0625 0)"/>
    </g>
   </g>
   <g id="line2d_26">
    <path d="M 511.20033 30.909141 
L 522.20033 30.909141 
L 533.20033 30.909141 
" style="fill: none; stroke: #dd8452; stroke-width: 1.5; stroke-linecap: round"/>
    <g>
     <use xlink:href="#mb78c679333" x="522.20033" y="30.909141" style="fill: #dd8452; stroke: #dd8452; stroke-linejoin: miter"/>
    </g>
   </g>
   <g id="text_25">
    <!-- goccy / BQ (wall vs server) -->
    <g style="fill: #262626" transform="translate(542.00033 34.759141) scale(0.11 -0.11)">
     <use xlink:href="#DejaVuSans-4a"/>
     <use xlink:href="#DejaVuSans-52" transform="translate(63.484375 0)"/>
     <use xlink:href="#DejaVuSans-46" transform="translate(124.671875 0)"/>
     <use xlink:href="#DejaVuSans-46" transform="translate(179.65625 0)"/>
     <use xlink:href="#DejaVuSans-5c" transform="translate(234.640625 0)"/>
     <use xlink:href="#DejaVuSans-3" transform="translate(293.828125 0)"/>
     <use xlink:href="#DejaVuSans-12" transform="translate(325.609375 0)"/>
     <use xlink:href="#DejaVuSans-3" transform="translate(359.296875 0)"/>
     <use xlink:href="#DejaVuSans-25" transform="translate(391.078125 0)"/>
     <use xlink:href="#DejaVuSans-34" transform="translate(459.6875 0)"/>
     <use xlink:href="#DejaVuSans-3" transform="translate(538.40625 0)"/>
     <use xlink:href="#DejaVuSans-b" transform="translate(570.1875 0)"/>
     <use xlink:href="#DejaVuSans-5a" transform="translate(609.203125 0)"/>
     <use xlink:href="#DejaVuSans-44" transform="translate(690.984375 0)"/>
     <use xlink:href="#DejaVuSans-4f" transform="translate(752.265625 0)"/>
     <use xlink:href="#DejaVuSans-4f" transform="translate(780.046875 0)"/>
     <use xlink:href="#DejaVuSans-3" transform="translate(807.828125 0)"/>
     <use xlink:href="#DejaVuSans-59" transform="translate(839.609375 0)"/>
     <use xlink:href="#DejaVuSans-56" transform="translate(898.796875 0)"/>
     <use xlink:href="#DejaVuSans-3" transform="translate(950.890625 0)"/>
     <use xlink:href="#DejaVuSans-56" transform="translate(982.671875 0)"/>
     <use xlink:href="#DejaVuSans-48" transform="translate(1034.765625 0)"/>
     <use xlink:href="#DejaVuSans-55" transform="translate(1096.296875 0)"/>
     <use xlink:href="#DejaVuSans-59" transform="translate(1137.40625 0)"/>
     <use xlink:href="#DejaVuSans-48" transform="translate(1196.59375 0)"/>
     <use xlink:href="#DejaVuSans-55" transform="translate(1258.125 0)"/>
     <use xlink:href="#DejaVuSans-c" transform="translate(1299.234375 0)"/>
    </g>
   </g>
   <g id="line2d_27">
    <path d="M 511.20033 47.41 
L 522.20033 47.41 
L 533.20033 47.41 
" style="fill: none; stroke-dasharray: 5.55,2.4; stroke-dashoffset: 0; stroke: #ff0000; stroke-width: 1.5"/>
   </g>
   <g id="text_26">
    <!-- default threshold (1.5x) -->
    <g style="fill: #262626" transform="translate(542.00033 51.26) scale(0.11 -0.11)">
     <defs>
      <path id="DejaVuSans-11" d="M 684 794 
L 1344 794 
L 1344 0 
L 684 0 
L 684 794 
z
" transform="scale(0.015625)"/>
     </defs>
     <use xlink:href="#DejaVuSans-47"/>
     <use xlink:href="#DejaVuSans-48" transform="translate(63.484375 0)"/>
     <use xlink:href="#DejaVuSans-49" transform="translate(125.015625 0)"/>
     <use xlink:href="#DejaVuSans-44" transform="translate(160.21875 0)"/>
     <use xlink:href="#DejaVuSans-58" transform="translate(221.5 0)"/>
     <use xlink:href="#DejaVuSans-4f" transform="translate(284.875 0)"/>
     <use xlink:href="#DejaVuSans-57" transform="translate(312.65625 0)"/>
     <use xlink:href="#DejaVuSans-3" transform="translate(351.859375 0)"/>
     <use xlink:href="#DejaVuSans-57" transform="translate(383.640625 0)"/>
     <use xlink:href="#DejaVuSans-4b" transform="translate(422.84375 0)"/>
     <use xlink:href="#DejaVuSans-55" transform="translate(486.21875 0)"/>
     <use xlink:href="#DejaVuSans-48" transform="translate(525.125 0)"/>
     <use xlink:href="#DejaVuSans-56" transform="translate(586.65625 0)"/>
     <use xlink:href="#DejaVuSans-4b" transform="translate(638.75 0)"/>
     <use xlink:href="#DejaVuSans-52" transform="translate(702.125 0)"/>
     <use xlink:href="#DejaVuSans-4f" transform="translate(763.3125 0)"/>
     <use xlink:href="#DejaVuSans-47" transform="translate(791.09375 0)"/>
     <use xlink:href="#DejaVuSans-3" transform="translate(854.578125 0)"/>
     <use xlink:href="#DejaVuSans-b" transform="translate(886.359375 0)"/>
     <use xlink:href="#DejaVuSans-14" transform="translate(925.375 0)"/>
     <use xlink:href="#DejaVuSans-11" transform="translate(989 0)"/>
     <use xlink:href="#DejaVuSans-18" transform="translate(1020.78125 0)"/>
     <use xlink:href="#DejaVuSans-5b" transform="translate(1084.40625 0)"/>
     <use xlink:href="#DejaVuSans-c" transform="translate(1143.59375 0)"/>
    </g>
   </g>
  </g>
 </g>
 <defs>
  <clipPath id="p694753785d">
   <rect x="67.40783" y="44.9" width="558" height="277.2"/>
  </clipPath>
 </defs>
</svg>
